<?xml version="1.0" encoding="utf-8" standalone="no"?>
<!DOCTYPE svg PUBLIC "-//W3C//DTD SVG 1.1//EN"
  "http://www.w3.org/Graphics/SVG/1.1/DTD/svg11.dtd">
<svg xmlns:xlink="http://www.w3.org/1999/xlink" width="515.818125pt" height="524.54875pt" viewBox="0 0 515.818125 524.54875" xmlns="http://www.w3.org/2000/svg" version="1.1">
 <metadata>
  <rdf:RDF xmlns:dc="http://purl.org/dc/elements/1.1/" xmlns:cc="http://creativecommons.org/ns#" xmlns:rdf="http://www.w3.org/1999/02/22-rdf-syntax-ns#">
   <cc:Work>
    <dc:type rdf:resource="http://purl.org/dc/dcmitype/StillImage"/>
    <dc:date>2024-10-30T17:49:59.547428</dc:date>
    <dc:format>image/svg+xml</dc:format>
    <dc:creator>
     <cc:Agent>
      <dc:title>Matplotlib v3.8.0, https://matplotlib.org/</dc:title>
     </cc:Agent>
    </dc:creator>
   </cc:Work>
  </rdf:RDF>
 </metadata>
 <defs>
  <style type="text/css">*{stroke-linejoin: round; stroke-linecap: butt}</style>
 </defs>
 <g id="figure_1">
  <g id="patch_1">
   <path d="M 0 524.54875 
L 515.818125 524.54875 
L 515.818125 0 
L 0 0 
z
" style="fill: #ffffff"/>
  </g>
  <g id="axes_1">
   <g id="patch_2">
    <path d="M 62.218125 477.08425 
L 508.618125 477.08425 
L 508.618125 33.56425 
L 62.218125 33.56425 
z
" style="fill: #ffffff"/>
   </g>
   <g id="patch_3">
    <path d="M 65.008125 363.43225 
L 338.428125 363.43225 
L 338.428125 258.09625 
L 65.008125 258.09625 
L 65.008125 363.43225 
z
" clip-path="url(#p86e7fb74d8)" style="fill: none; stroke: #ff0000; stroke-width: 4; stroke-linejoin: miter"/>
   </g>
   <g id="patch_4">
    <path d="M 330.058125 205.42825 
Q 341.218125 255.32425 330.058125 280.27225 
" clip-path="url(#p86e7fb74d8)" style="fill: none; stroke-dasharray: 11.1,4.8; stroke-dashoffset: 0; stroke: #000000; stroke-width: 3; stroke-linejoin: miter"/>
   </g>
   <g id="patch_5">
    <path d="M 329.061737 284.697012 
Q 324.974145 283.764423 320.886554 282.831834 
Q 324.08518 280.121314 327.283806 277.410794 
z
" clip-path="url(#p86e7fb74d8)" style="stroke-dasharray: 3.7,1.6; stroke-dashoffset: 0; stroke: #000000; stroke-linecap: round"/>
   </g>
   <g id="patch_6">
    <path d="M 246.358125 205.42825 
Q 285.418125 255.32425 246.358125 280.27225 
" clip-path="url(#p86e7fb74d8)" style="fill: none; stroke-dasharray: 11.1,4.8; stroke-dashoffset: 0; stroke: #000000; stroke-width: 3; stroke-linejoin: miter"/>
   </g>
   <g id="patch_7">
    <path d="M 245.361737 284.697012 
Q 241.274145 283.764423 237.186554 282.831834 
Q 240.38518 280.121314 243.583806 277.410794 
z
" clip-path="url(#p86e7fb74d8)" style="stroke-dasharray: 3.7,1.6; stroke-dashoffset: 0; stroke: #000000; stroke-linecap: round"/>
   </g>
   <g id="patch_8">
    <path d="M 134.758125 205.42825 
Q 173.818125 255.32425 134.758125 280.27225 
" clip-path="url(#p86e7fb74d8)" style="fill: none; stroke-dasharray: 11.1,4.8; stroke-dashoffset: 0; stroke: #000000; stroke-width: 3; stroke-linejoin: miter"/>
   </g>
   <g id="patch_9">
    <path d="M 133.761737 284.697012 
Q 129.674145 283.764423 125.586554 282.831834 
Q 128.78518 280.121314 131.983806 277.410794 
z
" clip-path="url(#p86e7fb74d8)" style="stroke-dasharray: 3.7,1.6; stroke-dashoffset: 0; stroke: #000000; stroke-linecap: round"/>
   </g>
   <g id="patch_10">
    <path d="M 287.418346 504.80425 
Q 295.791739 504.80425 338.10009 504.80425 
" clip-path="url(#p86e7fb74d8)" style="fill: none; stroke: #008000; stroke-linecap: round"/>
    <path d="M 332.10009 501.80425 
L 338.10009 504.80425 
L 332.10009 507.80425 
" clip-path="url(#p86e7fb74d8)" style="fill: none; stroke: #008000; stroke-linecap: round"/>
   </g>
   <g id="patch_11">
    <path d="M 480.718125 44.09785 
L 489.088125 60.72985 
L 480.746025 60.72985 
L 480.746025 61.28425 
L 480.690225 61.28425 
L 480.690225 60.72985 
L 472.348125 60.72985 
L 480.718125 44.09785 
z
" clip-path="url(#p86e7fb74d8)" style="fill: none; stroke: #696969; stroke-linejoin: miter"/>
   </g>
   <g id="matplotlib.axis_1">
    <g id="xtick_1">
     <g id="line2d_1">
      <path d="M 62.218125 477.08425 
L 62.218125 33.56425 
" clip-path="url(#p86e7fb74d8)" style="fill: none; stroke: #b0b0b0; stroke-linecap: square"/>
     </g>
     <g id="line2d_2">
      <defs>
       <path id="me6aaeadfe3" d="M 0 0 
L 0 3.5 
" style="stroke: #ff0000; stroke-width: 0.8"/>
      </defs>
      <g>
       <use xlink:href="#me6aaeadfe3" x="62.218125" y="477.08425" style="fill: #ff0000; stroke: #ff0000; stroke-width: 0.8"/>
      </g>
     </g>
     <g id="text_1">
      <!--   000 -->
      <g style="fill: #ff0000" transform="translate(62.218125 500.74925) scale(0.24 -0.24)">
       <defs>
        <path id="TimesNewRomanPSMT-20" transform="scale(0.015625)"/>
        <path id="TimesNewRomanPSMT-30" d="M 231 2094 
Q 231 2819 450 3342 
Q 669 3866 1031 4122 
Q 1313 4325 1613 4325 
Q 2100 4325 2488 3828 
Q 2972 3213 2972 2159 
Q 2972 1422 2759 906 
Q 2547 391 2217 158 
Q 1888 -75 1581 -75 
Q 975 -75 572 641 
Q 231 1244 231 2094 
z
M 844 2016 
Q 844 1141 1059 588 
Q 1238 122 1591 122 
Q 1759 122 1940 273 
Q 2122 425 2216 781 
Q 2359 1319 2359 2297 
Q 2359 3022 2209 3506 
Q 2097 3866 1919 4016 
Q 1791 4119 1609 4119 
Q 1397 4119 1231 3928 
Q 1006 3669 925 3112 
Q 844 2556 844 2016 
z
" transform="scale(0.015625)"/>
       </defs>
       <use xlink:href="#TimesNewRomanPSMT-20"/>
       <use xlink:href="#TimesNewRomanPSMT-20" x="25"/>
       <use xlink:href="#TimesNewRomanPSMT-30" x="50"/>
       <use xlink:href="#TimesNewRomanPSMT-30" x="100"/>
       <use xlink:href="#TimesNewRomanPSMT-30" x="150"/>
      </g>
     </g>
    </g>
    <g id="xtick_2">
     <g id="line2d_3">
      <path d="M 118.018125 477.08425 
L 118.018125 33.56425 
" clip-path="url(#p86e7fb74d8)" style="fill: none; stroke: #b0b0b0; stroke-linecap: square"/>
     </g>
     <g id="line2d_4">
      <g>
       <use xlink:href="#me6aaeadfe3" x="118.018125" y="477.08425" style="fill: #ff0000; stroke: #ff0000; stroke-width: 0.8"/>
      </g>
     </g>
     <g id="text_2">
      <!--   001 -->
      <g style="fill: #ff0000" transform="translate(118.018125 500.74925) scale(0.24 -0.24)">
       <defs>
        <path id="TimesNewRomanPSMT-31" d="M 750 3822 
L 1781 4325 
L 1884 4325 
L 1884 747 
Q 1884 391 1914 303 
Q 1944 216 2037 169 
Q 2131 122 2419 116 
L 2419 0 
L 825 0 
L 825 116 
Q 1125 122 1212 167 
Q 1300 213 1334 289 
Q 1369 366 1369 747 
L 1369 3034 
Q 1369 3497 1338 3628 
Q 1316 3728 1258 3775 
Q 1200 3822 1119 3822 
Q 1003 3822 797 3725 
L 750 3822 
z
" transform="scale(0.015625)"/>
       </defs>
       <use xlink:href="#TimesNewRomanPSMT-20"/>
       <use xlink:href="#TimesNewRomanPSMT-20" x="25"/>
       <use xlink:href="#TimesNewRomanPSMT-30" x="50"/>
       <use xlink:href="#TimesNewRomanPSMT-30" x="100"/>
       <use xlink:href="#TimesNewRomanPSMT-31" x="150"/>
      </g>
     </g>
    </g>
    <g id="xtick_3">
     <g id="line2d_5">
      <path d="M 173.818125 477.08425 
L 173.818125 33.56425 
" clip-path="url(#p86e7fb74d8)" style="fill: none; stroke: #b0b0b0; stroke-linecap: square"/>
     </g>
     <g id="line2d_6">
      <g>
       <use xlink:href="#me6aaeadfe3" x="173.818125" y="477.08425" style="fill: #ff0000; stroke: #ff0000; stroke-width: 0.8"/>
      </g>
     </g>
     <g id="text_3">
      <!--   010 -->
      <g style="fill: #ff0000" transform="translate(173.818125 500.74925) scale(0.24 -0.24)">
       <use xlink:href="#TimesNewRomanPSMT-20"/>
       <use xlink:href="#TimesNewRomanPSMT-20" x="25"/>
       <use xlink:href="#TimesNewRomanPSMT-30" x="50"/>
       <use xlink:href="#TimesNewRomanPSMT-31" x="100"/>
       <use xlink:href="#TimesNewRomanPSMT-30" x="150"/>
      </g>
     </g>
    </g>
    <g id="xtick_4">
     <g id="line2d_7">
      <path d="M 229.618125 477.08425 
L 229.618125 33.56425 
" clip-path="url(#p86e7fb74d8)" style="fill: none; stroke: #b0b0b0; stroke-linecap: square"/>
     </g>
     <g id="line2d_8">
      <g>
       <use xlink:href="#me6aaeadfe3" x="229.618125" y="477.08425" style="fill: #ff0000; stroke: #ff0000; stroke-width: 0.8"/>
      </g>
     </g>
     <g id="text_4">
      <!--   011 -->
      <g style="fill: #ff0000" transform="translate(229.618125 500.74925) scale(0.24 -0.24)">
       <use xlink:href="#TimesNewRomanPSMT-20"/>
       <use xlink:href="#TimesNewRomanPSMT-20" x="25"/>
       <use xlink:href="#TimesNewRomanPSMT-30" x="50"/>
       <use xlink:href="#TimesNewRomanPSMT-31" x="100"/>
       <use xlink:href="#TimesNewRomanPSMT-31" x="146.25"/>
      </g>
     </g>
    </g>
    <g id="xtick_5">
     <g id="line2d_9">
      <path d="M 285.418125 477.08425 
L 285.418125 33.56425 
" clip-path="url(#p86e7fb74d8)" style="fill: none; stroke: #b0b0b0; stroke-linecap: square"/>
     </g>
     <g id="line2d_10">
      <g>
       <use xlink:href="#me6aaeadfe3" x="285.418125" y="477.08425" style="fill: #ff0000; stroke: #ff0000; stroke-width: 0.8"/>
      </g>
     </g>
     <g id="text_5">
      <!--   100 -->
      <g style="fill: #ff0000" transform="translate(285.418125 500.74925) scale(0.24 -0.24)">
       <use xlink:href="#TimesNewRomanPSMT-20"/>
       <use xlink:href="#TimesNewRomanPSMT-20" x="25"/>
       <use xlink:href="#TimesNewRomanPSMT-31" x="50"/>
       <use xlink:href="#TimesNewRomanPSMT-30" x="100"/>
       <use xlink:href="#TimesNewRomanPSMT-30" x="150"/>
      </g>
     </g>
    </g>
    <g id="xtick_6">
     <g id="line2d_11">
      <path d="M 341.218125 477.08425 
L 341.218125 33.56425 
" clip-path="url(#p86e7fb74d8)" style="fill: none; stroke: #b0b0b0; stroke-linecap: square"/>
     </g>
     <g id="line2d_12">
      <g>
       <use xlink:href="#me6aaeadfe3" x="341.218125" y="477.08425" style="fill: #ff0000; stroke: #ff0000; stroke-width: 0.8"/>
      </g>
     </g>
     <g id="text_6">
      <!--   101 -->
      <g style="fill: #ff0000" transform="translate(341.218125 500.74925) scale(0.24 -0.24)">
       <use xlink:href="#TimesNewRomanPSMT-20"/>
       <use xlink:href="#TimesNewRomanPSMT-20" x="25"/>
       <use xlink:href="#TimesNewRomanPSMT-31" x="50"/>
       <use xlink:href="#TimesNewRomanPSMT-30" x="100"/>
       <use xlink:href="#TimesNewRomanPSMT-31" x="150"/>
      </g>
     </g>
    </g>
    <g id="xtick_7">
     <g id="line2d_13">
      <path d="M 397.018125 477.08425 
L 397.018125 33.56425 
" clip-path="url(#p86e7fb74d8)" style="fill: none; stroke: #b0b0b0; stroke-linecap: square"/>
     </g>
     <g id="line2d_14">
      <g>
       <use xlink:href="#me6aaeadfe3" x="397.018125" y="477.08425" style="fill: #ff0000; stroke: #ff0000; stroke-width: 0.8"/>
      </g>
     </g>
     <g id="text_7">
      <!--   110 -->
      <g style="fill: #ff0000" transform="translate(397.018125 500.74925) scale(0.24 -0.24)">
       <use xlink:href="#TimesNewRomanPSMT-20"/>
       <use xlink:href="#TimesNewRomanPSMT-20" x="25"/>
       <use xlink:href="#TimesNewRomanPSMT-31" x="50"/>
       <use xlink:href="#TimesNewRomanPSMT-31" x="96.25"/>
       <use xlink:href="#TimesNewRomanPSMT-30" x="146.25"/>
      </g>
     </g>
    </g>
    <g id="xtick_8">
     <g id="line2d_15">
      <path d="M 452.818125 477.08425 
L 452.818125 33.56425 
" clip-path="url(#p86e7fb74d8)" style="fill: none; stroke: #b0b0b0; stroke-linecap: square"/>
     </g>
     <g id="line2d_16">
      <g>
       <use xlink:href="#me6aaeadfe3" x="452.818125" y="477.08425" style="fill: #ff0000; stroke: #ff0000; stroke-width: 0.8"/>
      </g>
     </g>
     <g id="text_8">
      <!--   111 -->
      <g style="fill: #ff0000" transform="translate(452.818125 500.74925) scale(0.24 -0.24)">
       <use xlink:href="#TimesNewRomanPSMT-20"/>
       <use xlink:href="#TimesNewRomanPSMT-20" x="25"/>
       <use xlink:href="#TimesNewRomanPSMT-31" x="50"/>
       <use xlink:href="#TimesNewRomanPSMT-31" x="96.25"/>
       <use xlink:href="#TimesNewRomanPSMT-31" x="142.5"/>
      </g>
     </g>
    </g>
    <g id="text_9">
     <!-- x -->
     <g transform="translate(276.418125 506.51695) scale(0.36 -0.36)">
      <defs>
       <path id="TimesNewRomanPSMT-78" d="M 84 2863 
L 1431 2863 
L 1431 2747 
Q 1303 2747 1251 2703 
Q 1200 2659 1200 2588 
Q 1200 2513 1309 2356 
Q 1344 2306 1413 2200 
L 1616 1875 
L 1850 2200 
Q 2075 2509 2075 2591 
Q 2075 2656 2022 2701 
Q 1969 2747 1850 2747 
L 1850 2863 
L 2819 2863 
L 2819 2747 
Q 2666 2738 2553 2663 
Q 2400 2556 2134 2200 
L 1744 1678 
L 2456 653 
Q 2719 275 2831 198 
Q 2944 122 3122 113 
L 3122 0 
L 1772 0 
L 1772 113 
Q 1913 113 1991 175 
Q 2050 219 2050 291 
Q 2050 363 1850 653 
L 1431 1266 
L 972 653 
Q 759 369 759 316 
Q 759 241 829 180 
Q 900 119 1041 113 
L 1041 0 
L 106 0 
L 106 113 
Q 219 128 303 191 
Q 422 281 703 653 
L 1303 1450 
L 759 2238 
Q 528 2575 401 2661 
Q 275 2747 84 2747 
L 84 2863 
z
" transform="scale(0.015625)"/>
      </defs>
      <use xlink:href="#TimesNewRomanPSMT-78"/>
     </g>
    </g>
   </g>
   <g id="matplotlib.axis_2">
    <g id="ytick_1">
     <g id="line2d_17">
      <path d="M 62.218125 477.08425 
L 508.618125 477.08425 
" clip-path="url(#p86e7fb74d8)" style="fill: none; stroke: #b0b0b0; stroke-linecap: square"/>
     </g>
     <g id="line2d_18">
      <defs>
       <path id="m80a31b5cbc" d="M 0 0 
L -3.5 0 
" style="stroke: #0000ff; stroke-width: 0.8"/>
      </defs>
      <g>
       <use xlink:href="#m80a31b5cbc" x="62.218125" y="477.08425" style="fill: #0000ff; stroke: #0000ff; stroke-width: 0.8"/>
      </g>
     </g>
     <g id="text_10">
      <!-- 000 -->
      <g style="fill: #0000ff" transform="translate(19.218125 461.9515) scale(0.24 -0.24)">
       <use xlink:href="#TimesNewRomanPSMT-30"/>
       <use xlink:href="#TimesNewRomanPSMT-30" x="50"/>
       <use xlink:href="#TimesNewRomanPSMT-30" x="100"/>
      </g>
      <!--  -->
      <g style="fill: #0000ff" transform="translate(55.218125 487.08325) scale(0.24 -0.24)"/>
      <!--  -->
      <g style="fill: #0000ff" transform="translate(55.218125 512.215) scale(0.24 -0.24)"/>
     </g>
    </g>
    <g id="ytick_2">
     <g id="line2d_19">
      <path d="M 62.218125 421.64425 
L 508.618125 421.64425 
" clip-path="url(#p86e7fb74d8)" style="fill: none; stroke: #b0b0b0; stroke-linecap: square"/>
     </g>
     <g id="line2d_20">
      <g>
       <use xlink:href="#m80a31b5cbc" x="62.218125" y="421.64425" style="fill: #0000ff; stroke: #0000ff; stroke-width: 0.8"/>
      </g>
     </g>
     <g id="text_11">
      <!-- 001 -->
      <g style="fill: #0000ff" transform="translate(19.218125 406.5115) scale(0.24 -0.24)">
       <use xlink:href="#TimesNewRomanPSMT-30"/>
       <use xlink:href="#TimesNewRomanPSMT-30" x="50"/>
       <use xlink:href="#TimesNewRomanPSMT-31" x="100"/>
      </g>
      <!--  -->
      <g style="fill: #0000ff" transform="translate(55.218125 431.64325) scale(0.24 -0.24)"/>
      <!--  -->
      <g style="fill: #0000ff" transform="translate(55.218125 456.775) scale(0.24 -0.24)"/>
     </g>
    </g>
    <g id="ytick_3">
     <g id="line2d_21">
      <path d="M 62.218125 366.20425 
L 508.618125 366.20425 
" clip-path="url(#p86e7fb74d8)" style="fill: none; stroke: #b0b0b0; stroke-linecap: square"/>
     </g>
     <g id="line2d_22">
      <g>
       <use xlink:href="#m80a31b5cbc" x="62.218125" y="366.20425" style="fill: #0000ff; stroke: #0000ff; stroke-width: 0.8"/>
      </g>
     </g>
     <g id="text_12">
      <!-- 010 -->
      <g style="fill: #0000ff" transform="translate(19.218125 351.0715) scale(0.24 -0.24)">
       <use xlink:href="#TimesNewRomanPSMT-30"/>
       <use xlink:href="#TimesNewRomanPSMT-31" x="50"/>
       <use xlink:href="#TimesNewRomanPSMT-30" x="100"/>
      </g>
      <!--  -->
      <g style="fill: #0000ff" transform="translate(55.218125 376.20325) scale(0.24 -0.24)"/>
      <!--  -->
      <g style="fill: #0000ff" transform="translate(55.218125 401.335) scale(0.24 -0.24)"/>
     </g>
    </g>
    <g id="ytick_4">
     <g id="line2d_23">
      <path d="M 62.218125 310.76425 
L 508.618125 310.76425 
" clip-path="url(#p86e7fb74d8)" style="fill: none; stroke: #b0b0b0; stroke-linecap: square"/>
     </g>
     <g id="line2d_24">
      <g>
       <use xlink:href="#m80a31b5cbc" x="62.218125" y="310.76425" style="fill: #0000ff; stroke: #0000ff; stroke-width: 0.8"/>
      </g>
     </g>
     <g id="text_13">
      <!-- 011 -->
      <g style="fill: #0000ff" transform="translate(20.118125 295.6315) scale(0.24 -0.24)">
       <use xlink:href="#TimesNewRomanPSMT-30"/>
       <use xlink:href="#TimesNewRomanPSMT-31" x="50"/>
       <use xlink:href="#TimesNewRomanPSMT-31" x="96.25"/>
      </g>
      <!--  -->
      <g style="fill: #0000ff" transform="translate(55.218125 320.76325) scale(0.24 -0.24)"/>
      <!--  -->
      <g style="fill: #0000ff" transform="translate(55.218125 345.895) scale(0.24 -0.24)"/>
     </g>
    </g>
    <g id="ytick_5">
     <g id="line2d_25">
      <path d="M 62.218125 255.32425 
L 508.618125 255.32425 
" clip-path="url(#p86e7fb74d8)" style="fill: none; stroke: #b0b0b0; stroke-linecap: square"/>
     </g>
     <g id="line2d_26">
      <g>
       <use xlink:href="#m80a31b5cbc" x="62.218125" y="255.32425" style="fill: #0000ff; stroke: #0000ff; stroke-width: 0.8"/>
      </g>
     </g>
     <g id="text_14">
      <!-- 100 -->
      <g style="fill: #0000ff" transform="translate(19.218125 240.1915) scale(0.24 -0.24)">
       <use xlink:href="#TimesNewRomanPSMT-31"/>
       <use xlink:href="#TimesNewRomanPSMT-30" x="50"/>
       <use xlink:href="#TimesNewRomanPSMT-30" x="100"/>
      </g>
      <!--  -->
      <g style="fill: #0000ff" transform="translate(55.218125 265.32325) scale(0.24 -0.24)"/>
      <!--  -->
      <g style="fill: #0000ff" transform="translate(55.218125 290.455) scale(0.24 -0.24)"/>
     </g>
    </g>
    <g id="ytick_6">
     <g id="line2d_27">
      <path d="M 62.218125 199.88425 
L 508.618125 199.88425 
" clip-path="url(#p86e7fb74d8)" style="fill: none; stroke: #b0b0b0; stroke-linecap: square"/>
     </g>
     <g id="line2d_28">
      <g>
       <use xlink:href="#m80a31b5cbc" x="62.218125" y="199.88425" style="fill: #0000ff; stroke: #0000ff; stroke-width: 0.8"/>
      </g>
     </g>
     <g id="text_15">
      <!-- 101 -->
      <g style="fill: #0000ff" transform="translate(19.218125 184.7515) scale(0.24 -0.24)">
       <use xlink:href="#TimesNewRomanPSMT-31"/>
       <use xlink:href="#TimesNewRomanPSMT-30" x="50"/>
       <use xlink:href="#TimesNewRomanPSMT-31" x="100"/>
      </g>
      <!--  -->
      <g style="fill: #0000ff" transform="translate(55.218125 209.88325) scale(0.24 -0.24)"/>
      <!--  -->
      <g style="fill: #0000ff" transform="translate(55.218125 235.015) scale(0.24 -0.24)"/>
     </g>
    </g>
    <g id="ytick_7">
     <g id="line2d_29">
      <path d="M 62.218125 144.44425 
L 508.618125 144.44425 
" clip-path="url(#p86e7fb74d8)" style="fill: none; stroke: #b0b0b0; stroke-linecap: square"/>
     </g>
     <g id="line2d_30">
      <g>
       <use xlink:href="#m80a31b5cbc" x="62.218125" y="144.44425" style="fill: #0000ff; stroke: #0000ff; stroke-width: 0.8"/>
      </g>
     </g>
     <g id="text_16">
      <!-- 110 -->
      <g style="fill: #0000ff" transform="translate(20.118125 129.3115) scale(0.24 -0.24)">
       <use xlink:href="#TimesNewRomanPSMT-31"/>
       <use xlink:href="#TimesNewRomanPSMT-31" x="46.25"/>
       <use xlink:href="#TimesNewRomanPSMT-30" x="96.25"/>
      </g>
      <!--  -->
      <g style="fill: #0000ff" transform="translate(55.218125 154.44325) scale(0.24 -0.24)"/>
      <!--  -->
      <g style="fill: #0000ff" transform="translate(55.218125 179.575) scale(0.24 -0.24)"/>
     </g>
    </g>
    <g id="ytick_8">
     <g id="line2d_31">
      <path d="M 62.218125 89.00425 
L 508.618125 89.00425 
" clip-path="url(#p86e7fb74d8)" style="fill: none; stroke: #b0b0b0; stroke-linecap: square"/>
     </g>
     <g id="line2d_32">
      <g>
       <use xlink:href="#m80a31b5cbc" x="62.218125" y="89.00425" style="fill: #0000ff; stroke: #0000ff; stroke-width: 0.8"/>
      </g>
     </g>
     <g id="text_17">
      <!-- 111 -->
      <g style="fill: #0000ff" transform="translate(21.018125 73.8715) scale(0.24 -0.24)">
       <use xlink:href="#TimesNewRomanPSMT-31"/>
       <use xlink:href="#TimesNewRomanPSMT-31" x="46.25"/>
       <use xlink:href="#TimesNewRomanPSMT-31" x="92.5"/>
      </g>
      <!--  -->
      <g style="fill: #0000ff" transform="translate(55.218125 99.00325) scale(0.24 -0.24)"/>
      <!--  -->
      <g style="fill: #0000ff" transform="translate(55.218125 124.135) scale(0.24 -0.24)"/>
     </g>
    </g>
    <g id="ytick_9">
     <g id="line2d_33">
      <path d="M 62.218125 33.56425 
L 508.618125 33.56425 
" clip-path="url(#p86e7fb74d8)" style="fill: none; stroke: #b0b0b0; stroke-linecap: square"/>
     </g>
     <g id="line2d_34">
      <g>
       <use xlink:href="#m80a31b5cbc" x="62.218125" y="33.56425" style="fill: #0000ff; stroke: #0000ff; stroke-width: 0.8"/>
      </g>
     </g>
    </g>
    <g id="text_18">
     <!-- y -->
     <g transform="translate(32.13 264.32425) rotate(-90) scale(0.36 -0.36)">
      <defs>
       <path id="TimesNewRomanPSMT-79" d="M 38 2863 
L 1372 2863 
L 1372 2747 
L 1306 2747 
Q 1166 2747 1095 2686 
Q 1025 2625 1025 2534 
Q 1025 2413 1128 2197 
L 1825 753 
L 2466 2334 
Q 2519 2463 2519 2588 
Q 2519 2644 2497 2672 
Q 2472 2706 2419 2726 
Q 2366 2747 2231 2747 
L 2231 2863 
L 3163 2863 
L 3163 2747 
Q 3047 2734 2984 2696 
Q 2922 2659 2847 2556 
Q 2819 2513 2741 2316 
L 1575 -541 
Q 1406 -956 1132 -1168 
Q 859 -1381 606 -1381 
Q 422 -1381 303 -1275 
Q 184 -1169 184 -1031 
Q 184 -900 270 -820 
Q 356 -741 506 -741 
Q 609 -741 788 -809 
Q 913 -856 944 -856 
Q 1038 -856 1148 -759 
Q 1259 -663 1372 -384 
L 1575 113 
L 547 2272 
Q 500 2369 397 2513 
Q 319 2622 269 2659 
Q 197 2709 38 2747 
L 38 2863 
z
" transform="scale(0.015625)"/>
      </defs>
      <use xlink:href="#TimesNewRomanPSMT-79"/>
     </g>
    </g>
   </g>
   <g id="line2d_35">
    <path d="M 90.118125 449.36425 
L 90.118125 393.92425 
L 145.918125 449.36425 
L 145.918125 393.92425 
L 90.118125 338.48425 
L 90.118125 283.04425 
L 145.918125 338.48425 
L 145.918125 283.04425 
L 201.718125 449.36425 
L 201.718125 393.92425 
L 257.518125 449.36425 
L 257.518125 393.92425 
L 201.718125 338.48425 
L 201.718125 283.04425 
L 257.518125 338.48425 
L 257.518125 283.04425 
L 90.118125 227.60425 
L 90.118125 172.16425 
L 145.918125 227.60425 
L 145.918125 172.16425 
L 90.118125 116.72425 
L 90.118125 61.28425 
L 145.918125 116.72425 
L 145.918125 61.28425 
L 201.718125 227.60425 
L 201.718125 172.16425 
L 257.518125 227.60425 
L 257.518125 172.16425 
L 201.718125 116.72425 
L 201.718125 61.28425 
L 257.518125 116.72425 
L 257.518125 61.28425 
L 313.318125 449.36425 
L 313.318125 393.92425 
L 369.118125 449.36425 
L 369.118125 393.92425 
L 313.318125 338.48425 
L 313.318125 283.04425 
L 369.118125 338.48425 
L 369.118125 283.04425 
L 424.918125 449.36425 
L 424.918125 393.92425 
L 480.718125 449.36425 
L 480.718125 393.92425 
L 424.918125 338.48425 
L 424.918125 283.04425 
L 480.718125 338.48425 
L 480.718125 283.04425 
L 313.318125 227.60425 
L 313.318125 172.16425 
L 369.118125 227.60425 
L 369.118125 172.16425 
L 313.318125 116.72425 
L 313.318125 61.28425 
L 369.118125 116.72425 
L 369.118125 61.28425 
L 424.918125 227.60425 
L 424.918125 172.16425 
L 480.718125 227.60425 
L 480.718125 172.16425 
L 424.918125 116.72425 
L 424.918125 61.28425 
L 480.718125 116.72425 
L 480.718125 61.28425 
" clip-path="url(#p86e7fb74d8)" style="fill: none; stroke-dasharray: 25.6,6.4,4,6.4; stroke-dashoffset: 0; stroke: #d3d3d3; stroke-width: 4"/>
   </g>
   <g id="line2d_36">
    <path d="M 90.118125 393.92425 
L 145.918125 449.36425 
" clip-path="url(#p86e7fb74d8)" style="fill: none; stroke-dasharray: 25.6,6.4,4,6.4; stroke-dashoffset: 0; stroke: #ff0000; stroke-width: 4"/>
   </g>
   <g id="line2d_37">
    <path d="M 90.118125 338.48425 
L 90.118125 283.04425 
" clip-path="url(#p86e7fb74d8)" style="fill: none; stroke-dasharray: 25.6,6.4,4,6.4; stroke-dashoffset: 0; stroke: #0000ff; stroke-width: 4"/>
   </g>
   <g id="line2d_38">
    <path d="M 90.118125 283.04425 
L 145.918125 338.48425 
" clip-path="url(#p86e7fb74d8)" style="fill: none; stroke-dasharray: 25.6,6.4,4,6.4; stroke-dashoffset: 0; stroke: #ff0000; stroke-width: 4"/>
   </g>
   <g id="line2d_39">
    <path d="M 145.918125 338.48425 
L 145.918125 283.04425 
" clip-path="url(#p86e7fb74d8)" style="fill: none; stroke-dasharray: 25.6,6.4,4,6.4; stroke-dashoffset: 0; stroke: #0000ff; stroke-width: 4"/>
   </g>
   <g id="line2d_40">
    <path d="M 201.718125 338.48425 
L 201.718125 283.04425 
" clip-path="url(#p86e7fb74d8)" style="fill: none; stroke-dasharray: 25.6,6.4,4,6.4; stroke-dashoffset: 0; stroke: #0000ff; stroke-width: 4"/>
   </g>
   <g id="line2d_41">
    <path d="M 201.718125 283.04425 
L 257.518125 338.48425 
" clip-path="url(#p86e7fb74d8)" style="fill: none; stroke-dasharray: 25.6,6.4,4,6.4; stroke-dashoffset: 0; stroke: #ff0000; stroke-width: 4"/>
   </g>
   <g id="line2d_42">
    <path d="M 257.518125 338.48425 
L 257.518125 283.04425 
" clip-path="url(#p86e7fb74d8)" style="fill: none; stroke-dasharray: 25.6,6.4,4,6.4; stroke-dashoffset: 0; stroke: #0000ff; stroke-width: 4"/>
   </g>
   <g id="line2d_43">
    <path d="M 257.518125 61.28425 
L 313.318125 449.36425 
" clip-path="url(#p86e7fb74d8)" style="fill: none; stroke-dasharray: 25.6,6.4,4,6.4; stroke-dashoffset: 0; stroke: #ff0000; stroke-width: 4"/>
   </g>
   <g id="line2d_44">
    <path d="M 313.318125 338.48425 
L 313.318125 283.04425 
" clip-path="url(#p86e7fb74d8)" style="fill: none; stroke-dasharray: 25.6,6.4,4,6.4; stroke-dashoffset: 0; stroke: #0000ff; stroke-width: 4"/>
   </g>
   <g id="line2d_45">
    <path d="M 369.118125 283.04425 
L 424.918125 449.36425 
" clip-path="url(#p86e7fb74d8)" style="fill: none; stroke-dasharray: 25.6,6.4,4,6.4; stroke-dashoffset: 0; stroke: #ff0000; stroke-width: 4"/>
   </g>
   <g id="line2d_46">
    <path d="M 118.018125 477.08425 
L 118.018125 33.56425 
" clip-path="url(#p86e7fb74d8)" style="fill: none; stroke: #d3d3d3; stroke-linecap: square"/>
   </g>
   <g id="line2d_47">
    <path d="M 173.818125 477.08425 
L 173.818125 33.56425 
" clip-path="url(#p86e7fb74d8)" style="fill: none; stroke: #d3d3d3; stroke-linecap: square"/>
   </g>
   <g id="line2d_48">
    <path d="M 229.618125 477.08425 
L 229.618125 33.56425 
" clip-path="url(#p86e7fb74d8)" style="fill: none; stroke: #d3d3d3; stroke-linecap: square"/>
   </g>
   <g id="line2d_49">
    <path d="M 285.418125 477.08425 
L 285.418125 33.56425 
" clip-path="url(#p86e7fb74d8)" style="fill: none; stroke: #d3d3d3; stroke-linecap: square"/>
   </g>
   <g id="line2d_50">
    <path d="M 341.218125 477.08425 
L 341.218125 33.56425 
" clip-path="url(#p86e7fb74d8)" style="fill: none; stroke: #d3d3d3; stroke-linecap: square"/>
   </g>
   <g id="line2d_51">
    <path d="M 397.018125 477.08425 
L 397.018125 33.56425 
" clip-path="url(#p86e7fb74d8)" style="fill: none; stroke: #d3d3d3; stroke-linecap: square"/>
   </g>
   <g id="line2d_52">
    <path d="M 452.818125 477.08425 
L 452.818125 33.56425 
" clip-path="url(#p86e7fb74d8)" style="fill: none; stroke: #d3d3d3; stroke-linecap: square"/>
   </g>
   <g id="patch_12">
    <path d="M 62.218125 477.08425 
L 62.218125 33.56425 
" style="fill: none; stroke: #000000; stroke-width: 0.8; stroke-linejoin: miter; stroke-linecap: square"/>
   </g>
   <g id="patch_13">
    <path d="M 508.618125 477.08425 
L 508.618125 33.56425 
" style="fill: none; stroke: #000000; stroke-width: 0.8; stroke-linejoin: miter; stroke-linecap: square"/>
   </g>
   <g id="patch_14">
    <path d="M 62.218125 477.08425 
L 508.618125 477.08425 
" style="fill: none; stroke: #000000; stroke-width: 0.8; stroke-linejoin: miter; stroke-linecap: square"/>
   </g>
   <g id="patch_15">
    <path d="M 62.218125 33.56425 
L 508.618125 33.56425 
" style="fill: none; stroke: #000000; stroke-width: 0.8; stroke-linejoin: miter; stroke-linecap: square"/>
   </g>
   <g id="text_19">
    <!-- 0 -->
    <g style="fill: #ff0000" transform="translate(65.008125 388.38025) scale(0.18 -0.18)">
     <use xlink:href="#TimesNewRomanPSMT-30"/>
    </g>
   </g>
   <g id="text_20">
    <!-- 1 -->
    <g transform="translate(65.008125 413.32825) scale(0.24 -0.24)">
     <use xlink:href="#TimesNewRomanPSMT-31"/>
    </g>
   </g>
   <g id="text_21">
    <!-- 0 -->
    <g style="fill: #0000ff" transform="translate(77.508125 388.38025) scale(0.18 -0.18)">
     <use xlink:href="#TimesNewRomanPSMT-30"/>
    </g>
   </g>
   <g id="text_22">
    <!-- 1 -->
    <g transform="translate(65.008125 413.32825) scale(0.24 -0.24)">
     <use xlink:href="#TimesNewRomanPSMT-31"/>
    </g>
   </g>
   <g id="text_23">
    <!-- 0 -->
    <g style="fill: #ff0000" transform="translate(90.008125 388.38025) scale(0.18 -0.18)">
     <use xlink:href="#TimesNewRomanPSMT-30"/>
    </g>
   </g>
   <g id="text_24">
    <!-- 1 -->
    <g transform="translate(65.008125 413.32825) scale(0.24 -0.24)">
     <use xlink:href="#TimesNewRomanPSMT-31"/>
    </g>
   </g>
   <g id="text_25">
    <!-- 0 -->
    <g style="fill: #0000ff" transform="translate(102.508125 388.38025) scale(0.18 -0.18)">
     <use xlink:href="#TimesNewRomanPSMT-30"/>
    </g>
   </g>
   <g id="text_26">
    <!-- 1 -->
    <g transform="translate(65.008125 413.32825) scale(0.24 -0.24)">
     <use xlink:href="#TimesNewRomanPSMT-31"/>
    </g>
   </g>
   <g id="text_27">
    <!-- 0 -->
    <g style="fill: #ff0000" transform="translate(115.008125 388.38025) scale(0.18 -0.18)">
     <use xlink:href="#TimesNewRomanPSMT-30"/>
    </g>
   </g>
   <g id="text_28">
    <!-- 1 -->
    <g transform="translate(65.008125 413.32825) scale(0.24 -0.24)">
     <use xlink:href="#TimesNewRomanPSMT-31"/>
    </g>
   </g>
   <g id="text_29">
    <!-- 1 -->
    <g style="fill: #0000ff" transform="translate(127.508125 388.38025) scale(0.18 -0.18)">
     <use xlink:href="#TimesNewRomanPSMT-31"/>
    </g>
   </g>
   <g id="text_30">
    <!-- 1 -->
    <g transform="translate(65.008125 413.32825) scale(0.24 -0.24)">
     <use xlink:href="#TimesNewRomanPSMT-31"/>
    </g>
   </g>
   <g id="text_31">
    <!-- 0 -->
    <g style="fill: #ff0000" transform="translate(120.808125 471.54025) scale(0.18 -0.18)">
     <use xlink:href="#TimesNewRomanPSMT-30"/>
    </g>
   </g>
   <g id="text_32">
    <!-- 2 -->
    <g transform="translate(148.708125 446.59225) scale(0.24 -0.24)">
     <defs>
      <path id="TimesNewRomanPSMT-32" d="M 2934 816 
L 2638 0 
L 138 0 
L 138 116 
Q 1241 1122 1691 1759 
Q 2141 2397 2141 2925 
Q 2141 3328 1894 3587 
Q 1647 3847 1303 3847 
Q 991 3847 742 3664 
Q 494 3481 375 3128 
L 259 3128 
Q 338 3706 661 4015 
Q 984 4325 1469 4325 
Q 1984 4325 2329 3994 
Q 2675 3663 2675 3213 
Q 2675 2891 2525 2569 
Q 2294 2063 1775 1497 
Q 997 647 803 472 
L 1909 472 
Q 2247 472 2383 497 
Q 2519 522 2628 598 
Q 2738 675 2819 816 
L 2934 816 
z
" transform="scale(0.015625)"/>
     </defs>
     <use xlink:href="#TimesNewRomanPSMT-32"/>
    </g>
   </g>
   <g id="text_33">
    <!-- 0 -->
    <g style="fill: #0000ff" transform="translate(133.308125 471.54025) scale(0.18 -0.18)">
     <use xlink:href="#TimesNewRomanPSMT-30"/>
    </g>
   </g>
   <g id="text_34">
    <!-- 2 -->
    <g transform="translate(148.708125 446.59225) scale(0.24 -0.24)">
     <use xlink:href="#TimesNewRomanPSMT-32"/>
    </g>
   </g>
   <g id="text_35">
    <!-- 0 -->
    <g style="fill: #ff0000" transform="translate(145.808125 471.54025) scale(0.18 -0.18)">
     <use xlink:href="#TimesNewRomanPSMT-30"/>
    </g>
   </g>
   <g id="text_36">
    <!-- 2 -->
    <g transform="translate(148.708125 446.59225) scale(0.24 -0.24)">
     <use xlink:href="#TimesNewRomanPSMT-32"/>
    </g>
   </g>
   <g id="text_37">
    <!-- 0 -->
    <g style="fill: #0000ff" transform="translate(158.308125 471.54025) scale(0.18 -0.18)">
     <use xlink:href="#TimesNewRomanPSMT-30"/>
    </g>
   </g>
   <g id="text_38">
    <!-- 2 -->
    <g transform="translate(148.708125 446.59225) scale(0.24 -0.24)">
     <use xlink:href="#TimesNewRomanPSMT-32"/>
    </g>
   </g>
   <g id="text_39">
    <!-- 1 -->
    <g style="fill: #ff0000" transform="translate(170.808125 471.54025) scale(0.18 -0.18)">
     <use xlink:href="#TimesNewRomanPSMT-31"/>
    </g>
   </g>
   <g id="text_40">
    <!-- 2 -->
    <g transform="translate(148.708125 446.59225) scale(0.24 -0.24)">
     <use xlink:href="#TimesNewRomanPSMT-32"/>
    </g>
   </g>
   <g id="text_41">
    <!-- 0 -->
    <g style="fill: #0000ff" transform="translate(183.308125 471.54025) scale(0.18 -0.18)">
     <use xlink:href="#TimesNewRomanPSMT-30"/>
    </g>
   </g>
   <g id="text_42">
    <!-- 2 -->
    <g transform="translate(148.708125 446.59225) scale(0.24 -0.24)">
     <use xlink:href="#TimesNewRomanPSMT-32"/>
    </g>
   </g>
   <g id="text_43">
    <!-- 0 -->
    <g style="fill: #ff0000" transform="translate(65.008125 277.50025) scale(0.18 -0.18)">
     <use xlink:href="#TimesNewRomanPSMT-30"/>
    </g>
   </g>
   <g id="text_44">
    <!-- 5 -->
    <g transform="translate(65.008125 302.44825) scale(0.24 -0.24)">
     <defs>
      <path id="TimesNewRomanPSMT-35" d="M 2778 4238 
L 2534 3706 
L 1259 3706 
L 981 3138 
Q 1809 3016 2294 2522 
Q 2709 2097 2709 1522 
Q 2709 1188 2573 903 
Q 2438 619 2231 419 
Q 2025 219 1772 97 
Q 1413 -75 1034 -75 
Q 653 -75 479 54 
Q 306 184 306 341 
Q 306 428 378 495 
Q 450 563 559 563 
Q 641 563 702 538 
Q 763 513 909 409 
Q 1144 247 1384 247 
Q 1750 247 2026 523 
Q 2303 800 2303 1197 
Q 2303 1581 2056 1914 
Q 1809 2247 1375 2428 
Q 1034 2569 447 2591 
L 1259 4238 
L 2778 4238 
z
" transform="scale(0.015625)"/>
     </defs>
     <use xlink:href="#TimesNewRomanPSMT-35"/>
    </g>
   </g>
   <g id="text_45">
    <!-- 0 -->
    <g style="fill: #0000ff" transform="translate(77.508125 277.50025) scale(0.18 -0.18)">
     <use xlink:href="#TimesNewRomanPSMT-30"/>
    </g>
   </g>
   <g id="text_46">
    <!-- 5 -->
    <g transform="translate(65.008125 302.44825) scale(0.24 -0.24)">
     <use xlink:href="#TimesNewRomanPSMT-35"/>
    </g>
   </g>
   <g id="text_47">
    <!-- 0 -->
    <g style="fill: #ff0000" transform="translate(90.008125 277.50025) scale(0.18 -0.18)">
     <use xlink:href="#TimesNewRomanPSMT-30"/>
    </g>
   </g>
   <g id="text_48">
    <!-- 5 -->
    <g transform="translate(65.008125 302.44825) scale(0.24 -0.24)">
     <use xlink:href="#TimesNewRomanPSMT-35"/>
    </g>
   </g>
   <g id="text_49">
    <!-- 1 -->
    <g style="fill: #0000ff" transform="translate(102.508125 277.50025) scale(0.18 -0.18)">
     <use xlink:href="#TimesNewRomanPSMT-31"/>
    </g>
   </g>
   <g id="text_50">
    <!-- 5 -->
    <g transform="translate(65.008125 302.44825) scale(0.24 -0.24)">
     <use xlink:href="#TimesNewRomanPSMT-35"/>
    </g>
   </g>
   <g id="text_51">
    <!-- 0 -->
    <g style="fill: #ff0000" transform="translate(115.008125 277.50025) scale(0.18 -0.18)">
     <use xlink:href="#TimesNewRomanPSMT-30"/>
    </g>
   </g>
   <g id="text_52">
    <!-- 5 -->
    <g transform="translate(65.008125 302.44825) scale(0.24 -0.24)">
     <use xlink:href="#TimesNewRomanPSMT-35"/>
    </g>
   </g>
   <g id="text_53">
    <!-- 1 -->
    <g style="fill: #0000ff" transform="translate(127.508125 277.50025) scale(0.18 -0.18)">
     <use xlink:href="#TimesNewRomanPSMT-31"/>
    </g>
   </g>
   <g id="text_54">
    <!-- 5 -->
    <g transform="translate(65.008125 302.44825) scale(0.24 -0.24)">
     <use xlink:href="#TimesNewRomanPSMT-35"/>
    </g>
   </g>
   <g id="text_55">
    <!-- 0 -->
    <g style="fill: #ff0000" transform="translate(120.808125 360.66025) scale(0.18 -0.18)">
     <use xlink:href="#TimesNewRomanPSMT-30"/>
    </g>
   </g>
   <g id="text_56">
    <!-- 6 -->
    <g transform="translate(148.708125 335.71225) scale(0.24 -0.24)">
     <defs>
      <path id="TimesNewRomanPSMT-36" d="M 2869 4325 
L 2869 4209 
Q 2456 4169 2195 4045 
Q 1934 3922 1679 3669 
Q 1425 3416 1258 3105 
Q 1091 2794 978 2366 
Q 1428 2675 1881 2675 
Q 2316 2675 2634 2325 
Q 2953 1975 2953 1425 
Q 2953 894 2631 456 
Q 2244 -75 1606 -75 
Q 1172 -75 869 213 
Q 275 772 275 1663 
Q 275 2231 503 2743 
Q 731 3256 1154 3653 
Q 1578 4050 1965 4187 
Q 2353 4325 2688 4325 
L 2869 4325 
z
M 925 2138 
Q 869 1716 869 1456 
Q 869 1156 980 804 
Q 1091 453 1309 247 
Q 1469 100 1697 100 
Q 1969 100 2183 356 
Q 2397 613 2397 1088 
Q 2397 1622 2184 2012 
Q 1972 2403 1581 2403 
Q 1463 2403 1327 2353 
Q 1191 2303 925 2138 
z
" transform="scale(0.015625)"/>
     </defs>
     <use xlink:href="#TimesNewRomanPSMT-36"/>
    </g>
   </g>
   <g id="text_57">
    <!-- 0 -->
    <g style="fill: #0000ff" transform="translate(133.308125 360.66025) scale(0.18 -0.18)">
     <use xlink:href="#TimesNewRomanPSMT-30"/>
    </g>
   </g>
   <g id="text_58">
    <!-- 6 -->
    <g transform="translate(148.708125 335.71225) scale(0.24 -0.24)">
     <use xlink:href="#TimesNewRomanPSMT-36"/>
    </g>
   </g>
   <g id="text_59">
    <!-- 0 -->
    <g style="fill: #ff0000" transform="translate(145.808125 360.66025) scale(0.18 -0.18)">
     <use xlink:href="#TimesNewRomanPSMT-30"/>
    </g>
   </g>
   <g id="text_60">
    <!-- 6 -->
    <g transform="translate(148.708125 335.71225) scale(0.24 -0.24)">
     <use xlink:href="#TimesNewRomanPSMT-36"/>
    </g>
   </g>
   <g id="text_61">
    <!-- 1 -->
    <g style="fill: #0000ff" transform="translate(158.308125 360.66025) scale(0.18 -0.18)">
     <use xlink:href="#TimesNewRomanPSMT-31"/>
    </g>
   </g>
   <g id="text_62">
    <!-- 6 -->
    <g transform="translate(148.708125 335.71225) scale(0.24 -0.24)">
     <use xlink:href="#TimesNewRomanPSMT-36"/>
    </g>
   </g>
   <g id="text_63">
    <!-- 1 -->
    <g style="fill: #ff0000" transform="translate(170.808125 360.66025) scale(0.18 -0.18)">
     <use xlink:href="#TimesNewRomanPSMT-31"/>
    </g>
   </g>
   <g id="text_64">
    <!-- 6 -->
    <g transform="translate(148.708125 335.71225) scale(0.24 -0.24)">
     <use xlink:href="#TimesNewRomanPSMT-36"/>
    </g>
   </g>
   <g id="text_65">
    <!-- 0 -->
    <g style="fill: #0000ff" transform="translate(183.308125 360.66025) scale(0.18 -0.18)">
     <use xlink:href="#TimesNewRomanPSMT-30"/>
    </g>
   </g>
   <g id="text_66">
    <!-- 6 -->
    <g transform="translate(148.708125 335.71225) scale(0.24 -0.24)">
     <use xlink:href="#TimesNewRomanPSMT-36"/>
    </g>
   </g>
   <g id="text_67">
    <!-- 0 -->
    <g style="fill: #ff0000" transform="translate(176.608125 277.50025) scale(0.18 -0.18)">
     <use xlink:href="#TimesNewRomanPSMT-30"/>
    </g>
   </g>
   <g id="text_68">
    <!-- 13 -->
    <g transform="translate(176.608125 302.44825) scale(0.24 -0.24)">
     <defs>
      <path id="TimesNewRomanPSMT-33" d="M 325 3431 
Q 506 3859 782 4092 
Q 1059 4325 1472 4325 
Q 1981 4325 2253 3994 
Q 2459 3747 2459 3466 
Q 2459 3003 1878 2509 
Q 2269 2356 2469 2072 
Q 2669 1788 2669 1403 
Q 2669 853 2319 450 
Q 1863 -75 997 -75 
Q 569 -75 414 31 
Q 259 138 259 259 
Q 259 350 332 419 
Q 406 488 509 488 
Q 588 488 669 463 
Q 722 447 909 348 
Q 1097 250 1169 231 
Q 1284 197 1416 197 
Q 1734 197 1970 444 
Q 2206 691 2206 1028 
Q 2206 1275 2097 1509 
Q 2016 1684 1919 1775 
Q 1784 1900 1550 2001 
Q 1316 2103 1072 2103 
L 972 2103 
L 972 2197 
Q 1219 2228 1467 2375 
Q 1716 2522 1828 2728 
Q 1941 2934 1941 3181 
Q 1941 3503 1739 3701 
Q 1538 3900 1238 3900 
Q 753 3900 428 3381 
L 325 3431 
z
" transform="scale(0.015625)"/>
     </defs>
     <use xlink:href="#TimesNewRomanPSMT-31"/>
     <use xlink:href="#TimesNewRomanPSMT-33" x="50"/>
    </g>
   </g>
   <g id="text_69">
    <!-- 0 -->
    <g style="fill: #0000ff" transform="translate(189.108125 277.50025) scale(0.18 -0.18)">
     <use xlink:href="#TimesNewRomanPSMT-30"/>
    </g>
   </g>
   <g id="text_70">
    <!-- 13 -->
    <g transform="translate(176.608125 302.44825) scale(0.24 -0.24)">
     <use xlink:href="#TimesNewRomanPSMT-31"/>
     <use xlink:href="#TimesNewRomanPSMT-33" x="50"/>
    </g>
   </g>
   <g id="text_71">
    <!-- 1 -->
    <g style="fill: #ff0000" transform="translate(201.608125 277.50025) scale(0.18 -0.18)">
     <use xlink:href="#TimesNewRomanPSMT-31"/>
    </g>
   </g>
   <g id="text_72">
    <!-- 13 -->
    <g transform="translate(176.608125 302.44825) scale(0.24 -0.24)">
     <use xlink:href="#TimesNewRomanPSMT-31"/>
     <use xlink:href="#TimesNewRomanPSMT-33" x="50"/>
    </g>
   </g>
   <g id="text_73">
    <!-- 1 -->
    <g style="fill: #0000ff" transform="translate(214.108125 277.50025) scale(0.18 -0.18)">
     <use xlink:href="#TimesNewRomanPSMT-31"/>
    </g>
   </g>
   <g id="text_74">
    <!-- 13 -->
    <g transform="translate(176.608125 302.44825) scale(0.24 -0.24)">
     <use xlink:href="#TimesNewRomanPSMT-31"/>
     <use xlink:href="#TimesNewRomanPSMT-33" x="50"/>
    </g>
   </g>
   <g id="text_75">
    <!-- 0 -->
    <g style="fill: #ff0000" transform="translate(226.608125 277.50025) scale(0.18 -0.18)">
     <use xlink:href="#TimesNewRomanPSMT-30"/>
    </g>
   </g>
   <g id="text_76">
    <!-- 13 -->
    <g transform="translate(176.608125 302.44825) scale(0.24 -0.24)">
     <use xlink:href="#TimesNewRomanPSMT-31"/>
     <use xlink:href="#TimesNewRomanPSMT-33" x="50"/>
    </g>
   </g>
   <g id="text_77">
    <!-- 1 -->
    <g style="fill: #0000ff" transform="translate(239.108125 277.50025) scale(0.18 -0.18)">
     <use xlink:href="#TimesNewRomanPSMT-31"/>
    </g>
   </g>
   <g id="text_78">
    <!-- 13 -->
    <g transform="translate(176.608125 302.44825) scale(0.24 -0.24)">
     <use xlink:href="#TimesNewRomanPSMT-31"/>
     <use xlink:href="#TimesNewRomanPSMT-33" x="50"/>
    </g>
   </g>
   <g id="text_79">
    <!-- 0 -->
    <g style="fill: #ff0000" transform="translate(232.408125 360.66025) scale(0.18 -0.18)">
     <use xlink:href="#TimesNewRomanPSMT-30"/>
    </g>
   </g>
   <g id="text_80">
    <!-- 14 -->
    <g transform="translate(260.308125 335.71225) scale(0.24 -0.24)">
     <defs>
      <path id="TimesNewRomanPSMT-34" d="M 2978 1563 
L 2978 1119 
L 2409 1119 
L 2409 0 
L 1894 0 
L 1894 1119 
L 100 1119 
L 100 1519 
L 2066 4325 
L 2409 4325 
L 2409 1563 
L 2978 1563 
z
M 1894 1563 
L 1894 3666 
L 406 1563 
L 1894 1563 
z
" transform="scale(0.015625)"/>
     </defs>
     <use xlink:href="#TimesNewRomanPSMT-31"/>
     <use xlink:href="#TimesNewRomanPSMT-34" x="50"/>
    </g>
   </g>
   <g id="text_81">
    <!-- 0 -->
    <g style="fill: #0000ff" transform="translate(244.908125 360.66025) scale(0.18 -0.18)">
     <use xlink:href="#TimesNewRomanPSMT-30"/>
    </g>
   </g>
   <g id="text_82">
    <!-- 14 -->
    <g transform="translate(260.308125 335.71225) scale(0.24 -0.24)">
     <use xlink:href="#TimesNewRomanPSMT-31"/>
     <use xlink:href="#TimesNewRomanPSMT-34" x="50"/>
    </g>
   </g>
   <g id="text_83">
    <!-- 1 -->
    <g style="fill: #ff0000" transform="translate(257.408125 360.66025) scale(0.18 -0.18)">
     <use xlink:href="#TimesNewRomanPSMT-31"/>
    </g>
   </g>
   <g id="text_84">
    <!-- 14 -->
    <g transform="translate(260.308125 335.71225) scale(0.24 -0.24)">
     <use xlink:href="#TimesNewRomanPSMT-31"/>
     <use xlink:href="#TimesNewRomanPSMT-34" x="50"/>
    </g>
   </g>
   <g id="text_85">
    <!-- 1 -->
    <g style="fill: #0000ff" transform="translate(269.908125 360.66025) scale(0.18 -0.18)">
     <use xlink:href="#TimesNewRomanPSMT-31"/>
    </g>
   </g>
   <g id="text_86">
    <!-- 14 -->
    <g transform="translate(260.308125 335.71225) scale(0.24 -0.24)">
     <use xlink:href="#TimesNewRomanPSMT-31"/>
     <use xlink:href="#TimesNewRomanPSMT-34" x="50"/>
    </g>
   </g>
   <g id="text_87">
    <!-- 1 -->
    <g style="fill: #ff0000" transform="translate(282.408125 360.66025) scale(0.18 -0.18)">
     <use xlink:href="#TimesNewRomanPSMT-31"/>
    </g>
   </g>
   <g id="text_88">
    <!-- 14 -->
    <g transform="translate(260.308125 335.71225) scale(0.24 -0.24)">
     <use xlink:href="#TimesNewRomanPSMT-31"/>
     <use xlink:href="#TimesNewRomanPSMT-34" x="50"/>
    </g>
   </g>
   <g id="text_89">
    <!-- 0 -->
    <g style="fill: #0000ff" transform="translate(294.908125 360.66025) scale(0.18 -0.18)">
     <use xlink:href="#TimesNewRomanPSMT-30"/>
    </g>
   </g>
   <g id="text_90">
    <!-- 14 -->
    <g transform="translate(260.308125 335.71225) scale(0.24 -0.24)">
     <use xlink:href="#TimesNewRomanPSMT-31"/>
     <use xlink:href="#TimesNewRomanPSMT-34" x="50"/>
    </g>
   </g>
   <g id="text_91">
    <!-- 0 -->
    <g style="fill: #ff0000" transform="translate(232.408125 55.74025) scale(0.18 -0.18)">
     <use xlink:href="#TimesNewRomanPSMT-30"/>
    </g>
   </g>
   <g id="text_92">
    <!-- 31 -->
    <g transform="translate(232.408125 80.68825) scale(0.24 -0.24)">
     <use xlink:href="#TimesNewRomanPSMT-33"/>
     <use xlink:href="#TimesNewRomanPSMT-31" x="50"/>
    </g>
   </g>
   <g id="text_93">
    <!-- 1 -->
    <g style="fill: #0000ff" transform="translate(244.908125 55.74025) scale(0.18 -0.18)">
     <use xlink:href="#TimesNewRomanPSMT-31"/>
    </g>
   </g>
   <g id="text_94">
    <!-- 31 -->
    <g transform="translate(232.408125 80.68825) scale(0.24 -0.24)">
     <use xlink:href="#TimesNewRomanPSMT-33"/>
     <use xlink:href="#TimesNewRomanPSMT-31" x="50"/>
    </g>
   </g>
   <g id="text_95">
    <!-- 1 -->
    <g style="fill: #ff0000" transform="translate(257.408125 55.74025) scale(0.18 -0.18)">
     <use xlink:href="#TimesNewRomanPSMT-31"/>
    </g>
   </g>
   <g id="text_96">
    <!-- 31 -->
    <g transform="translate(232.408125 80.68825) scale(0.24 -0.24)">
     <use xlink:href="#TimesNewRomanPSMT-33"/>
     <use xlink:href="#TimesNewRomanPSMT-31" x="50"/>
    </g>
   </g>
   <g id="text_97">
    <!-- 1 -->
    <g style="fill: #0000ff" transform="translate(269.908125 55.74025) scale(0.18 -0.18)">
     <use xlink:href="#TimesNewRomanPSMT-31"/>
    </g>
   </g>
   <g id="text_98">
    <!-- 31 -->
    <g transform="translate(232.408125 80.68825) scale(0.24 -0.24)">
     <use xlink:href="#TimesNewRomanPSMT-33"/>
     <use xlink:href="#TimesNewRomanPSMT-31" x="50"/>
    </g>
   </g>
   <g id="text_99">
    <!-- 1 -->
    <g style="fill: #ff0000" transform="translate(282.408125 55.74025) scale(0.18 -0.18)">
     <use xlink:href="#TimesNewRomanPSMT-31"/>
    </g>
   </g>
   <g id="text_100">
    <!-- 31 -->
    <g transform="translate(232.408125 80.68825) scale(0.24 -0.24)">
     <use xlink:href="#TimesNewRomanPSMT-33"/>
     <use xlink:href="#TimesNewRomanPSMT-31" x="50"/>
    </g>
   </g>
   <g id="text_101">
    <!-- 1 -->
    <g style="fill: #0000ff" transform="translate(294.908125 55.74025) scale(0.18 -0.18)">
     <use xlink:href="#TimesNewRomanPSMT-31"/>
    </g>
   </g>
   <g id="text_102">
    <!-- 31 -->
    <g transform="translate(232.408125 80.68825) scale(0.24 -0.24)">
     <use xlink:href="#TimesNewRomanPSMT-33"/>
     <use xlink:href="#TimesNewRomanPSMT-31" x="50"/>
    </g>
   </g>
   <g id="text_103">
    <!-- 1 -->
    <g style="fill: #ff0000" transform="translate(288.208125 471.54025) scale(0.18 -0.18)">
     <use xlink:href="#TimesNewRomanPSMT-31"/>
    </g>
   </g>
   <g id="text_104">
    <!-- 32 -->
    <g transform="translate(316.108125 446.59225) scale(0.24 -0.24)">
     <use xlink:href="#TimesNewRomanPSMT-33"/>
     <use xlink:href="#TimesNewRomanPSMT-32" x="50"/>
    </g>
   </g>
   <g id="text_105">
    <!-- 0 -->
    <g style="fill: #0000ff" transform="translate(300.708125 471.54025) scale(0.18 -0.18)">
     <use xlink:href="#TimesNewRomanPSMT-30"/>
    </g>
   </g>
   <g id="text_106">
    <!-- 32 -->
    <g transform="translate(316.108125 446.59225) scale(0.24 -0.24)">
     <use xlink:href="#TimesNewRomanPSMT-33"/>
     <use xlink:href="#TimesNewRomanPSMT-32" x="50"/>
    </g>
   </g>
   <g id="text_107">
    <!-- 0 -->
    <g style="fill: #ff0000" transform="translate(313.208125 471.54025) scale(0.18 -0.18)">
     <use xlink:href="#TimesNewRomanPSMT-30"/>
    </g>
   </g>
   <g id="text_108">
    <!-- 32 -->
    <g transform="translate(316.108125 446.59225) scale(0.24 -0.24)">
     <use xlink:href="#TimesNewRomanPSMT-33"/>
     <use xlink:href="#TimesNewRomanPSMT-32" x="50"/>
    </g>
   </g>
   <g id="text_109">
    <!-- 0 -->
    <g style="fill: #0000ff" transform="translate(325.708125 471.54025) scale(0.18 -0.18)">
     <use xlink:href="#TimesNewRomanPSMT-30"/>
    </g>
   </g>
   <g id="text_110">
    <!-- 32 -->
    <g transform="translate(316.108125 446.59225) scale(0.24 -0.24)">
     <use xlink:href="#TimesNewRomanPSMT-33"/>
     <use xlink:href="#TimesNewRomanPSMT-32" x="50"/>
    </g>
   </g>
   <g id="text_111">
    <!-- 0 -->
    <g style="fill: #ff0000" transform="translate(338.208125 471.54025) scale(0.18 -0.18)">
     <use xlink:href="#TimesNewRomanPSMT-30"/>
    </g>
   </g>
   <g id="text_112">
    <!-- 32 -->
    <g transform="translate(316.108125 446.59225) scale(0.24 -0.24)">
     <use xlink:href="#TimesNewRomanPSMT-33"/>
     <use xlink:href="#TimesNewRomanPSMT-32" x="50"/>
    </g>
   </g>
   <g id="text_113">
    <!-- 0 -->
    <g style="fill: #0000ff" transform="translate(350.708125 471.54025) scale(0.18 -0.18)">
     <use xlink:href="#TimesNewRomanPSMT-30"/>
    </g>
   </g>
   <g id="text_114">
    <!-- 32 -->
    <g transform="translate(316.108125 446.59225) scale(0.24 -0.24)">
     <use xlink:href="#TimesNewRomanPSMT-33"/>
     <use xlink:href="#TimesNewRomanPSMT-32" x="50"/>
    </g>
   </g>
   <g id="text_115">
    <!-- 1 -->
    <g style="fill: #ff0000" transform="translate(344.008125 277.50025) scale(0.18 -0.18)">
     <use xlink:href="#TimesNewRomanPSMT-31"/>
    </g>
   </g>
   <g id="text_116">
    <!-- 39 -->
    <g transform="translate(344.008125 302.44825) scale(0.24 -0.24)">
     <defs>
      <path id="TimesNewRomanPSMT-39" d="M 338 -88 
L 338 28 
Q 744 34 1094 217 
Q 1444 400 1770 856 
Q 2097 1313 2225 1859 
Q 1734 1544 1338 1544 
Q 891 1544 572 1889 
Q 253 2234 253 2806 
Q 253 3363 572 3797 
Q 956 4325 1575 4325 
Q 2097 4325 2469 3894 
Q 2925 3359 2925 2575 
Q 2925 1869 2578 1258 
Q 2231 647 1613 244 
Q 1109 -88 516 -88 
L 338 -88 
z
M 2275 2091 
Q 2331 2497 2331 2741 
Q 2331 3044 2228 3395 
Q 2125 3747 1936 3934 
Q 1747 4122 1506 4122 
Q 1228 4122 1018 3872 
Q 809 3622 809 3128 
Q 809 2469 1088 2097 
Q 1291 1828 1588 1828 
Q 1731 1828 1928 1897 
Q 2125 1966 2275 2091 
z
" transform="scale(0.015625)"/>
     </defs>
     <use xlink:href="#TimesNewRomanPSMT-33"/>
     <use xlink:href="#TimesNewRomanPSMT-39" x="50"/>
    </g>
   </g>
   <g id="text_117">
    <!-- 0 -->
    <g style="fill: #0000ff" transform="translate(356.508125 277.50025) scale(0.18 -0.18)">
     <use xlink:href="#TimesNewRomanPSMT-30"/>
    </g>
   </g>
   <g id="text_118">
    <!-- 39 -->
    <g transform="translate(344.008125 302.44825) scale(0.24 -0.24)">
     <use xlink:href="#TimesNewRomanPSMT-33"/>
     <use xlink:href="#TimesNewRomanPSMT-39" x="50"/>
    </g>
   </g>
   <g id="text_119">
    <!-- 0 -->
    <g style="fill: #ff0000" transform="translate(369.008125 277.50025) scale(0.18 -0.18)">
     <use xlink:href="#TimesNewRomanPSMT-30"/>
    </g>
   </g>
   <g id="text_120">
    <!-- 39 -->
    <g transform="translate(344.008125 302.44825) scale(0.24 -0.24)">
     <use xlink:href="#TimesNewRomanPSMT-33"/>
     <use xlink:href="#TimesNewRomanPSMT-39" x="50"/>
    </g>
   </g>
   <g id="text_121">
    <!-- 1 -->
    <g style="fill: #0000ff" transform="translate(381.508125 277.50025) scale(0.18 -0.18)">
     <use xlink:href="#TimesNewRomanPSMT-31"/>
    </g>
   </g>
   <g id="text_122">
    <!-- 39 -->
    <g transform="translate(344.008125 302.44825) scale(0.24 -0.24)">
     <use xlink:href="#TimesNewRomanPSMT-33"/>
     <use xlink:href="#TimesNewRomanPSMT-39" x="50"/>
    </g>
   </g>
   <g id="text_123">
    <!-- 1 -->
    <g style="fill: #ff0000" transform="translate(394.008125 277.50025) scale(0.18 -0.18)">
     <use xlink:href="#TimesNewRomanPSMT-31"/>
    </g>
   </g>
   <g id="text_124">
    <!-- 39 -->
    <g transform="translate(344.008125 302.44825) scale(0.24 -0.24)">
     <use xlink:href="#TimesNewRomanPSMT-33"/>
     <use xlink:href="#TimesNewRomanPSMT-39" x="50"/>
    </g>
   </g>
   <g id="text_125">
    <!-- 1 -->
    <g style="fill: #0000ff" transform="translate(406.508125 277.50025) scale(0.18 -0.18)">
     <use xlink:href="#TimesNewRomanPSMT-31"/>
    </g>
   </g>
   <g id="text_126">
    <!-- 39 -->
    <g transform="translate(344.008125 302.44825) scale(0.24 -0.24)">
     <use xlink:href="#TimesNewRomanPSMT-33"/>
     <use xlink:href="#TimesNewRomanPSMT-39" x="50"/>
    </g>
   </g>
   <g id="text_127">
    <!-- 1 -->
    <g style="fill: #ff0000" transform="translate(399.808125 471.54025) scale(0.18 -0.18)">
     <use xlink:href="#TimesNewRomanPSMT-31"/>
    </g>
   </g>
   <g id="text_128">
    <!-- 40 -->
    <g transform="translate(427.708125 446.59225) scale(0.24 -0.24)">
     <use xlink:href="#TimesNewRomanPSMT-34"/>
     <use xlink:href="#TimesNewRomanPSMT-30" x="50"/>
    </g>
   </g>
   <g id="text_129">
    <!-- 0 -->
    <g style="fill: #0000ff" transform="translate(412.308125 471.54025) scale(0.18 -0.18)">
     <use xlink:href="#TimesNewRomanPSMT-30"/>
    </g>
   </g>
   <g id="text_130">
    <!-- 40 -->
    <g transform="translate(427.708125 446.59225) scale(0.24 -0.24)">
     <use xlink:href="#TimesNewRomanPSMT-34"/>
     <use xlink:href="#TimesNewRomanPSMT-30" x="50"/>
    </g>
   </g>
   <g id="text_131">
    <!-- 1 -->
    <g style="fill: #ff0000" transform="translate(424.808125 471.54025) scale(0.18 -0.18)">
     <use xlink:href="#TimesNewRomanPSMT-31"/>
    </g>
   </g>
   <g id="text_132">
    <!-- 40 -->
    <g transform="translate(427.708125 446.59225) scale(0.24 -0.24)">
     <use xlink:href="#TimesNewRomanPSMT-34"/>
     <use xlink:href="#TimesNewRomanPSMT-30" x="50"/>
    </g>
   </g>
   <g id="text_133">
    <!-- 0 -->
    <g style="fill: #0000ff" transform="translate(437.308125 471.54025) scale(0.18 -0.18)">
     <use xlink:href="#TimesNewRomanPSMT-30"/>
    </g>
   </g>
   <g id="text_134">
    <!-- 40 -->
    <g transform="translate(427.708125 446.59225) scale(0.24 -0.24)">
     <use xlink:href="#TimesNewRomanPSMT-34"/>
     <use xlink:href="#TimesNewRomanPSMT-30" x="50"/>
    </g>
   </g>
   <g id="text_135">
    <!-- 0 -->
    <g style="fill: #ff0000" transform="translate(449.808125 471.54025) scale(0.18 -0.18)">
     <use xlink:href="#TimesNewRomanPSMT-30"/>
    </g>
   </g>
   <g id="text_136">
    <!-- 40 -->
    <g transform="translate(427.708125 446.59225) scale(0.24 -0.24)">
     <use xlink:href="#TimesNewRomanPSMT-34"/>
     <use xlink:href="#TimesNewRomanPSMT-30" x="50"/>
    </g>
   </g>
   <g id="text_137">
    <!-- 0 -->
    <g style="fill: #0000ff" transform="translate(462.308125 471.54025) scale(0.18 -0.18)">
     <use xlink:href="#TimesNewRomanPSMT-30"/>
    </g>
   </g>
   <g id="text_138">
    <!-- 40 -->
    <g transform="translate(427.708125 446.59225) scale(0.24 -0.24)">
     <use xlink:href="#TimesNewRomanPSMT-34"/>
     <use xlink:href="#TimesNewRomanPSMT-30" x="50"/>
    </g>
   </g>
   <g id="text_139">
    <!-- BMC -->
    <g transform="translate(196.138125 22.47625) scale(0.22 -0.22)">
     <defs>
      <path id="TimesNewRomanPSMT-42" d="M 2956 2163 
Q 3397 2069 3616 1863 
Q 3919 1575 3919 1159 
Q 3919 844 3719 555 
Q 3519 266 3170 133 
Q 2822 0 2106 0 
L 106 0 
L 106 116 
L 266 116 
Q 531 116 647 284 
Q 719 394 719 750 
L 719 3488 
Q 719 3881 628 3984 
Q 506 4122 266 4122 
L 106 4122 
L 106 4238 
L 1938 4238 
Q 2450 4238 2759 4163 
Q 3228 4050 3475 3764 
Q 3722 3478 3722 3106 
Q 3722 2788 3528 2536 
Q 3334 2284 2956 2163 
z
M 1319 2331 
Q 1434 2309 1582 2298 
Q 1731 2288 1909 2288 
Q 2366 2288 2595 2386 
Q 2825 2484 2947 2687 
Q 3069 2891 3069 3131 
Q 3069 3503 2766 3765 
Q 2463 4028 1881 4028 
Q 1569 4028 1319 3959 
L 1319 2331 
z
M 1319 306 
Q 1681 222 2034 222 
Q 2600 222 2897 476 
Q 3194 731 3194 1106 
Q 3194 1353 3059 1581 
Q 2925 1809 2622 1940 
Q 2319 2072 1872 2072 
Q 1678 2072 1540 2065 
Q 1403 2059 1319 2044 
L 1319 306 
z
" transform="scale(0.015625)"/>
      <path id="TimesNewRomanPSMT-4d" d="M 2619 0 
L 981 3566 
L 981 734 
Q 981 344 1066 247 
Q 1181 116 1431 116 
L 1581 116 
L 1581 0 
L 106 0 
L 106 116 
L 256 116 
Q 525 116 638 278 
Q 706 378 706 734 
L 706 3503 
Q 706 3784 644 3909 
Q 600 4000 483 4061 
Q 366 4122 106 4122 
L 106 4238 
L 1306 4238 
L 2844 922 
L 4356 4238 
L 5556 4238 
L 5556 4122 
L 5409 4122 
Q 5138 4122 5025 3959 
Q 4956 3859 4956 3503 
L 4956 734 
Q 4956 344 5044 247 
Q 5159 116 5409 116 
L 5556 116 
L 5556 0 
L 3756 0 
L 3756 116 
L 3906 116 
Q 4178 116 4288 278 
Q 4356 378 4356 734 
L 4356 3566 
L 2722 0 
L 2619 0 
z
" transform="scale(0.015625)"/>
      <path id="TimesNewRomanPSMT-43" d="M 3853 4334 
L 3950 2894 
L 3853 2894 
Q 3659 3541 3300 3825 
Q 2941 4109 2438 4109 
Q 2016 4109 1675 3895 
Q 1334 3681 1139 3212 
Q 944 2744 944 2047 
Q 944 1472 1128 1050 
Q 1313 628 1683 403 
Q 2053 178 2528 178 
Q 2941 178 3256 354 
Q 3572 531 3950 1056 
L 4047 994 
Q 3728 428 3303 165 
Q 2878 -97 2294 -97 
Q 1241 -97 663 684 
Q 231 1266 231 2053 
Q 231 2688 515 3219 
Q 800 3750 1298 4042 
Q 1797 4334 2388 4334 
Q 2847 4334 3294 4109 
Q 3425 4041 3481 4041 
Q 3566 4041 3628 4100 
Q 3709 4184 3744 4334 
L 3853 4334 
z
" transform="scale(0.015625)"/>
     </defs>
     <use xlink:href="#TimesNewRomanPSMT-42"/>
     <use xlink:href="#TimesNewRomanPSMT-4d" x="66.699219"/>
     <use xlink:href="#TimesNewRomanPSMT-43" x="155.615234"/>
    </g>
   </g>
   <g id="text_140">
    <!-- X -->
    <g style="fill: #ff0000" transform="translate(251.938125 22.47625) scale(0.22 -0.22)">
     <defs>
      <path id="TimesNewRomanPSMT-58" d="M 2613 2347 
L 3522 991 
Q 3900 428 4083 279 
Q 4266 131 4547 116 
L 4547 0 
L 2728 0 
L 2728 116 
Q 2909 119 2997 153 
Q 3063 181 3105 239 
Q 3147 297 3147 356 
Q 3147 428 3119 500 
Q 3097 553 2947 775 
L 2228 1863 
L 1341 725 
Q 1200 544 1172 483 
Q 1144 422 1144 356 
Q 1144 256 1228 190 
Q 1313 125 1550 116 
L 1550 0 
L 47 0 
L 47 116 
Q 206 131 322 181 
Q 516 263 691 400 
Q 866 538 1091 822 
L 2091 2084 
L 1256 3306 
Q 916 3803 678 3958 
Q 441 4113 131 4122 
L 131 4238 
L 2091 4238 
L 2091 4122 
Q 1841 4113 1748 4041 
Q 1656 3969 1656 3881 
Q 1656 3766 1806 3544 
L 2456 2572 
L 3209 3525 
Q 3341 3694 3370 3756 
Q 3400 3819 3400 3884 
Q 3400 3950 3363 4000 
Q 3316 4066 3244 4092 
Q 3172 4119 2947 4122 
L 2947 4238 
L 4450 4238 
L 4450 4122 
Q 4272 4113 4159 4066 
Q 3991 3994 3850 3872 
Q 3709 3750 3453 3422 
L 2613 2347 
z
" transform="scale(0.015625)"/>
     </defs>
     <use xlink:href="#TimesNewRomanPSMT-58"/>
    </g>
   </g>
   <g id="text_141">
    <!-- Y -->
    <g style="fill: #0000ff" transform="translate(274.063125 22.47625) scale(0.22 -0.22)">
     <defs>
      <path id="TimesNewRomanPSMT-59" d="M 3050 4238 
L 4528 4238 
L 4528 4122 
L 4447 4122 
Q 4366 4122 4209 4050 
Q 4053 3978 3925 3843 
Q 3797 3709 3609 3406 
L 2588 1797 
L 2588 734 
Q 2588 344 2675 247 
Q 2794 116 3050 116 
L 3188 116 
L 3188 0 
L 1388 0 
L 1388 116 
L 1538 116 
Q 1806 116 1919 278 
Q 1988 378 1988 734 
L 1988 1738 
L 825 3513 
Q 619 3825 545 3903 
Q 472 3981 241 4091 
Q 178 4122 59 4122 
L 59 4238 
L 1872 4238 
L 1872 4122 
L 1778 4122 
Q 1631 4122 1507 4053 
Q 1384 3984 1384 3847 
Q 1384 3734 1575 3441 
L 2459 2075 
L 3291 3381 
Q 3478 3675 3478 3819 
Q 3478 3906 3433 3975 
Q 3388 4044 3303 4083 
Q 3219 4122 3050 4122 
L 3050 4238 
z
" transform="scale(0.015625)"/>
     </defs>
     <use xlink:href="#TimesNewRomanPSMT-59"/>
    </g>
   </g>
   <g id="text_142">
    <!-- X -->
    <g style="fill: #ff0000" transform="translate(296.188125 22.47625) scale(0.22 -0.22)">
     <use xlink:href="#TimesNewRomanPSMT-58"/>
    </g>
   </g>
   <g id="text_143">
    <!-- Y -->
    <g style="fill: #0000ff" transform="translate(318.313125 22.47625) scale(0.22 -0.22)">
     <use xlink:href="#TimesNewRomanPSMT-59"/>
    </g>
   </g>
   <g id="text_144">
    <!-- X -->
    <g style="fill: #ff0000" transform="translate(340.438125 22.47625) scale(0.22 -0.22)">
     <use xlink:href="#TimesNewRomanPSMT-58"/>
    </g>
   </g>
   <g id="text_145">
    <!-- Y -->
    <g style="fill: #0000ff" transform="translate(362.563125 22.47625) scale(0.22 -0.22)">
     <use xlink:href="#TimesNewRomanPSMT-59"/>
    </g>
   </g>
   <g id="text_146">
    <!-- $q$ -->
    <g style="fill: #ff0000" transform="translate(349.588125 352.34425) scale(0.4 -0.4)">
     <defs>
      <path id="Cmmi10-71" d="M 941 -1159 
Q 963 -1019 1025 -1019 
Q 1256 -1019 1389 -981 
Q 1522 -944 1563 -800 
L 1838 288 
Q 1472 -72 1106 -72 
Q 703 -72 473 233 
Q 244 538 244 953 
Q 244 1363 455 1803 
Q 666 2244 1027 2536 
Q 1388 2828 1806 2828 
Q 2000 2828 2156 2712 
Q 2313 2597 2394 2406 
Q 2431 2481 2601 2654 
Q 2772 2828 2841 2828 
Q 2913 2828 2913 2747 
L 2016 -825 
Q 2000 -919 1997 -934 
Q 1997 -1019 2419 -1019 
Q 2450 -1019 2467 -1044 
Q 2484 -1069 2484 -1100 
Q 2463 -1184 2448 -1212 
Q 2434 -1241 2375 -1241 
L 1006 -1241 
Q 941 -1241 941 -1159 
z
M 1119 97 
Q 1344 97 1558 267 
Q 1772 438 1931 672 
L 2291 2113 
Q 2253 2338 2126 2500 
Q 2000 2663 1791 2663 
Q 1575 2663 1389 2486 
Q 1203 2309 1075 2069 
Q 950 1813 836 1366 
Q 722 919 722 672 
Q 722 450 817 273 
Q 913 97 1119 97 
z
" transform="scale(0.015625)"/>
     </defs>
     <use xlink:href="#Cmmi10-71" transform="translate(0 0.8125)"/>
    </g>
   </g>
   <g id="text_147">
    <!-- $s_1$ -->
    <g transform="translate(118.018125 199.88425) scale(0.4 -0.4)">
     <defs>
      <path id="Cmmi10-73" d="M 556 391 
Q 728 97 1247 97 
Q 1472 97 1675 173 
Q 1878 250 2011 403 
Q 2144 556 2144 775 
Q 2144 941 2025 1047 
Q 1906 1153 1734 1191 
L 1388 1259 
Q 1150 1319 997 1481 
Q 844 1644 844 1875 
Q 844 2159 998 2378 
Q 1153 2597 1406 2712 
Q 1659 2828 1931 2828 
Q 2222 2828 2451 2689 
Q 2681 2550 2681 2278 
Q 2681 2131 2598 2018 
Q 2516 1906 2369 1906 
Q 2284 1906 2223 1961 
Q 2163 2016 2163 2100 
Q 2163 2175 2205 2245 
Q 2247 2316 2317 2358 
Q 2388 2400 2463 2400 
Q 2406 2538 2251 2600 
Q 2097 2663 1919 2663 
Q 1756 2663 1593 2597 
Q 1431 2531 1332 2404 
Q 1234 2278 1234 2106 
Q 1234 1991 1315 1903 
Q 1397 1816 1516 1778 
L 1888 1703 
Q 2066 1666 2214 1570 
Q 2363 1475 2448 1329 
Q 2534 1184 2534 997 
Q 2534 759 2401 528 
Q 2269 297 2075 159 
Q 1734 -72 1241 -72 
Q 900 -72 615 84 
Q 331 241 331 550 
Q 331 725 432 854 
Q 534 984 709 984 
Q 813 984 883 921 
Q 953 859 953 756 
Q 953 609 843 500 
Q 734 391 588 391 
L 556 391 
z
" transform="scale(0.015625)"/>
      <path id="Cmr10-31" d="M 594 0 
L 594 225 
Q 1394 225 1394 428 
L 1394 3788 
Q 1063 3628 556 3628 
L 556 3853 
Q 1341 3853 1741 4263 
L 1831 4263 
Q 1853 4263 1873 4245 
Q 1894 4228 1894 4206 
L 1894 428 
Q 1894 225 2694 225 
L 2694 0 
L 594 0 
z
" transform="scale(0.015625)"/>
     </defs>
     <use xlink:href="#Cmmi10-73" transform="translate(0 0.8125)"/>
     <use xlink:href="#Cmr10-31" transform="translate(46.777344 -16.19375) scale(0.7)"/>
    </g>
   </g>
   <g id="text_148">
    <!-- $s_2$ -->
    <g transform="translate(229.618125 199.88425) scale(0.4 -0.4)">
     <defs>
      <path id="Cmr10-32" d="M 319 0 
L 319 172 
Q 319 188 331 206 
L 1325 1306 
Q 1550 1550 1690 1715 
Q 1831 1881 1968 2097 
Q 2106 2313 2186 2536 
Q 2266 2759 2266 3009 
Q 2266 3272 2169 3511 
Q 2072 3750 1880 3894 
Q 1688 4038 1416 4038 
Q 1138 4038 916 3870 
Q 694 3703 603 3438 
Q 628 3444 672 3444 
Q 816 3444 917 3347 
Q 1019 3250 1019 3097 
Q 1019 2950 917 2848 
Q 816 2747 672 2747 
Q 522 2747 420 2851 
Q 319 2956 319 3097 
Q 319 3338 409 3548 
Q 500 3759 670 3923 
Q 841 4088 1055 4175 
Q 1269 4263 1509 4263 
Q 1875 4263 2190 4108 
Q 2506 3953 2690 3670 
Q 2875 3388 2875 3009 
Q 2875 2731 2753 2481 
Q 2631 2231 2440 2026 
Q 2250 1822 1953 1562 
Q 1656 1303 1563 1216 
L 838 519 
L 1453 519 
Q 1906 519 2211 526 
Q 2516 534 2534 550 
Q 2609 631 2688 1141 
L 2875 1141 
L 2694 0 
L 319 0 
z
" transform="scale(0.015625)"/>
     </defs>
     <use xlink:href="#Cmmi10-73" transform="translate(0 0.8125)"/>
     <use xlink:href="#Cmr10-32" transform="translate(46.777344 -16.19375) scale(0.7)"/>
    </g>
   </g>
   <g id="text_149">
    <!-- $s_3$ -->
    <g transform="translate(313.318125 199.88425) scale(0.4 -0.4)">
     <defs>
      <path id="Cmr10-33" d="M 609 494 
Q 759 275 1012 169 
Q 1266 63 1556 63 
Q 1928 63 2084 380 
Q 2241 697 2241 1100 
Q 2241 1281 2208 1462 
Q 2175 1644 2097 1800 
Q 2019 1956 1883 2050 
Q 1747 2144 1550 2144 
L 1125 2144 
Q 1069 2144 1069 2203 
L 1069 2259 
Q 1069 2309 1125 2309 
L 1478 2338 
Q 1703 2338 1851 2506 
Q 2000 2675 2069 2917 
Q 2138 3159 2138 3378 
Q 2138 3684 1994 3881 
Q 1850 4078 1556 4078 
Q 1313 4078 1091 3986 
Q 869 3894 738 3706 
Q 750 3709 759 3711 
Q 769 3713 781 3713 
Q 925 3713 1022 3613 
Q 1119 3513 1119 3372 
Q 1119 3234 1022 3134 
Q 925 3034 781 3034 
Q 641 3034 541 3134 
Q 441 3234 441 3372 
Q 441 3647 606 3850 
Q 772 4053 1033 4158 
Q 1294 4263 1556 4263 
Q 1750 4263 1965 4205 
Q 2181 4147 2356 4039 
Q 2531 3931 2642 3762 
Q 2753 3594 2753 3378 
Q 2753 3109 2633 2881 
Q 2513 2653 2303 2487 
Q 2094 2322 1844 2241 
Q 2122 2188 2372 2031 
Q 2622 1875 2773 1631 
Q 2925 1388 2925 1106 
Q 2925 753 2731 467 
Q 2538 181 2222 20 
Q 1906 -141 1556 -141 
Q 1256 -141 954 -26 
Q 653 88 461 316 
Q 269 544 269 863 
Q 269 1022 375 1128 
Q 481 1234 641 1234 
Q 744 1234 830 1186 
Q 916 1138 964 1050 
Q 1013 963 1013 863 
Q 1013 706 903 600 
Q 794 494 641 494 
L 609 494 
z
" transform="scale(0.015625)"/>
     </defs>
     <use xlink:href="#Cmmi10-73" transform="translate(0 0.8125)"/>
     <use xlink:href="#Cmr10-33" transform="translate(46.777344 -16.19375) scale(0.7)"/>
    </g>
   </g>
   <g id="text_150">
    <!-- $e_1$ -->
    <g style="fill: #ff0000" transform="translate(95.698125 332.94025) scale(0.4 -0.4)">
     <defs>
      <path id="Cmmi10-65" d="M 1288 -72 
Q 981 -72 751 87 
Q 522 247 401 517 
Q 281 788 281 1088 
Q 281 1544 511 1945 
Q 741 2347 1134 2587 
Q 1528 2828 1978 2828 
Q 2253 2828 2458 2686 
Q 2663 2544 2663 2278 
Q 2663 1909 2369 1729 
Q 2075 1550 1706 1508 
Q 1338 1466 891 1466 
L 872 1466 
Q 769 1084 769 813 
Q 769 528 900 312 
Q 1031 97 1300 97 
Q 1681 97 2032 272 
Q 2384 447 2606 756 
Q 2625 775 2656 775 
Q 2688 775 2720 739 
Q 2753 703 2753 672 
Q 2753 647 2741 634 
Q 2506 306 2109 117 
Q 1713 -72 1288 -72 
z
M 909 1631 
Q 1281 1631 1597 1665 
Q 1913 1700 2169 1839 
Q 2425 1978 2425 2272 
Q 2425 2391 2359 2480 
Q 2294 2569 2189 2616 
Q 2084 2663 1972 2663 
Q 1700 2663 1483 2516 
Q 1266 2369 1125 2133 
Q 984 1897 909 1631 
z
" transform="scale(0.015625)"/>
     </defs>
     <use xlink:href="#Cmmi10-65" transform="translate(0 0.8125)"/>
     <use xlink:href="#Cmr10-31" transform="translate(46.484375 -16.19375) scale(0.7)"/>
    </g>
   </g>
   <g id="text_151">
    <!-- $e_2$ -->
    <g style="fill: #ff0000" transform="translate(207.298125 332.94025) scale(0.4 -0.4)">
     <use xlink:href="#Cmmi10-65" transform="translate(0 0.8125)"/>
     <use xlink:href="#Cmr10-32" transform="translate(46.484375 -16.19375) scale(0.7)"/>
    </g>
   </g>
  </g>
 </g>
 <defs>
  <clipPath id="p86e7fb74d8">
   <rect x="62.218125" y="33.56425" width="446.4" height="443.52"/>
  </clipPath>
 </defs>
</svg>
