<?xml version="1.0" encoding="utf-8" standalone="no"?>
<!DOCTYPE svg PUBLIC "-//W3C//DTD SVG 1.1//EN"
  "http://www.w3.org/Graphics/SVG/1.1/DTD/svg11.dtd">
<svg xmlns:xlink="http://www.w3.org/1999/xlink" width="504.042125pt" height="495.053325pt" viewBox="0 0 504.042125 495.053325" xmlns="http://www.w3.org/2000/svg" version="1.1">
 <metadata>
  <rdf:RDF xmlns:dc="http://purl.org/dc/elements/1.1/" xmlns:cc="http://creativecommons.org/ns#" xmlns:rdf="http://www.w3.org/1999/02/22-rdf-syntax-ns#">
   <cc:Work>
    <dc:type rdf:resource="http://purl.org/dc/dcmitype/StillImage"/>
    <dc:date>2024-10-28T21:23:24.877612</dc:date>
    <dc:format>image/svg+xml</dc:format>
    <dc:creator>
     <cc:Agent>
      <dc:title>Matplotlib v3.8.0, https://matplotlib.org/</dc:title>
     </cc:Agent>
    </dc:creator>
   </cc:Work>
  </rdf:RDF>
 </metadata>
 <defs>
  <style type="text/css">*{stroke-linejoin: round; stroke-linecap: butt}</style>
 </defs>
 <g id="figure_1">
  <g id="patch_1">
   <path d="M 0 495.053325 
L 504.042125 495.053325 
L 504.042125 0 
L 0 0 
z
" style="fill: #ffffff"/>
  </g>
  <g id="axes_1">
   <g id="patch_2">
    <path d="M 44.362125 450.72 
L 490.762125 450.72 
L 490.762125 7.2 
L 44.362125 7.2 
z
" style="fill: #ffffff"/>
   </g>
   <g id="patch_3">
    <path d="M 61.102125 378.648 
L 306.622125 378.648 
L 306.622125 301.032 
L 61.102125 301.032 
L 61.102125 378.648 
z
" clip-path="url(#pbd1feaa1ec)" style="fill: none; stroke: #ff0000; stroke-width: 3; stroke-linejoin: miter"/>
   </g>
   <g id="patch_4">
    <path d="M 228.502125 267.768 
L 362.422125 267.768 
L 362.422125 134.712 
L 228.502125 134.712 
L 228.502125 267.768 
z
" clip-path="url(#pbd1feaa1ec)" style="fill: none; stroke: #ff0000; stroke-width: 3; stroke-linejoin: miter"/>
   </g>
   <g id="patch_5">
    <path d="M 74.544399 314.38755 
L 86.381367 320.26785 
L 84.408539 322.22795 
L 129.048539 366.57995 
L 127.075711 368.54005 
L 82.435711 324.18805 
L 80.462883 326.14815 
z
" clip-path="url(#pbd1feaa1ec)" style="fill: #0000ff; stroke: #0000ff; stroke-linejoin: miter"/>
   </g>
   <g id="patch_6">
    <path d="M 186.144399 314.38755 
L 197.981367 320.26785 
L 196.008539 322.22795 
L 240.648539 366.57995 
L 238.675711 368.54005 
L 194.035711 324.18805 
L 192.062883 326.14815 
z
" clip-path="url(#pbd1feaa1ec)" style="fill: #0000ff; stroke: #0000ff; stroke-linejoin: miter"/>
   </g>
   <g id="PathCollection_1">
    <defs>
     <path id="m2b13e49ffb" d="M 0 3 
C 0.795609 3 1.55874 2.683901 2.12132 2.12132 
C 2.683901 1.55874 3 0.795609 3 0 
C 3 -0.795609 2.683901 -1.55874 2.12132 -2.12132 
C 1.55874 -2.683901 0.795609 -3 0 -3 
C -0.795609 -3 -1.55874 -2.683901 -2.12132 -2.12132 
C -2.683901 -1.55874 -3 -0.795609 -3 0 
C -3 0.795609 -2.683901 1.55874 -2.12132 2.12132 
C -1.55874 2.683901 -0.795609 3 0 3 
z
" style="stroke: #0000ff; stroke-width: 4"/>
    </defs>
    <g clip-path="url(#pbd1feaa1ec)">
     <use xlink:href="#m2b13e49ffb" x="72.262125" y="367.56" style="fill: #0000ff; stroke: #0000ff; stroke-width: 4"/>
    </g>
   </g>
   <g id="PathCollection_2">
    <g clip-path="url(#pbd1feaa1ec)">
     <use xlink:href="#m2b13e49ffb" x="128.062125" y="367.56" style="fill: #0000ff; stroke: #0000ff; stroke-width: 4"/>
    </g>
   </g>
   <g id="PathCollection_3">
    <g clip-path="url(#pbd1feaa1ec)">
     <use xlink:href="#m2b13e49ffb" x="72.262125" y="312.12" style="fill: #0000ff; stroke: #0000ff; stroke-width: 4"/>
    </g>
   </g>
   <g id="PathCollection_4">
    <g clip-path="url(#pbd1feaa1ec)">
     <use xlink:href="#m2b13e49ffb" x="128.062125" y="312.12" style="fill: #0000ff; stroke: #0000ff; stroke-width: 4"/>
    </g>
   </g>
   <g id="PathCollection_5">
    <g clip-path="url(#pbd1feaa1ec)">
     <use xlink:href="#m2b13e49ffb" x="183.862125" y="367.56" style="fill: #0000ff; stroke: #0000ff; stroke-width: 4"/>
    </g>
   </g>
   <g id="PathCollection_6">
    <g clip-path="url(#pbd1feaa1ec)">
     <use xlink:href="#m2b13e49ffb" x="239.662125" y="367.56" style="fill: #0000ff; stroke: #0000ff; stroke-width: 4"/>
    </g>
   </g>
   <g id="PathCollection_7">
    <g clip-path="url(#pbd1feaa1ec)">
     <use xlink:href="#m2b13e49ffb" x="183.862125" y="312.12" style="fill: #0000ff; stroke: #0000ff; stroke-width: 4"/>
    </g>
   </g>
   <g id="PathCollection_8">
    <g clip-path="url(#pbd1feaa1ec)">
     <use xlink:href="#m2b13e49ffb" x="239.662125" y="312.12" style="fill: #0000ff; stroke: #0000ff; stroke-width: 4"/>
    </g>
   </g>
   <g id="PathCollection_9">
    <g clip-path="url(#pbd1feaa1ec)">
     <use xlink:href="#m2b13e49ffb" x="295.462125" y="312.12" style="fill: #0000ff; stroke: #0000ff; stroke-width: 4"/>
    </g>
   </g>
   <g id="PathCollection_10">
    <g clip-path="url(#pbd1feaa1ec)">
     <use xlink:href="#m2b13e49ffb" x="295.462125" y="367.56" style="fill: #0000ff; stroke: #0000ff; stroke-width: 4"/>
    </g>
   </g>
   <g id="PathCollection_11">
    <g clip-path="url(#pbd1feaa1ec)">
     <use xlink:href="#m2b13e49ffb" x="239.662125" y="256.68" style="fill: #0000ff; stroke: #0000ff; stroke-width: 4"/>
    </g>
   </g>
   <g id="PathCollection_12">
    <g clip-path="url(#pbd1feaa1ec)">
     <use xlink:href="#m2b13e49ffb" x="239.662125" y="201.24" style="fill: #0000ff; stroke: #0000ff; stroke-width: 4"/>
    </g>
   </g>
   <g id="PathCollection_13">
    <g clip-path="url(#pbd1feaa1ec)">
     <use xlink:href="#m2b13e49ffb" x="239.662125" y="145.8" style="fill: #0000ff; stroke: #0000ff; stroke-width: 4"/>
    </g>
   </g>
   <g id="PathCollection_14">
    <g clip-path="url(#pbd1feaa1ec)">
     <use xlink:href="#m2b13e49ffb" x="295.462125" y="256.68" style="fill: #0000ff; stroke: #0000ff; stroke-width: 4"/>
    </g>
   </g>
   <g id="PathCollection_15">
    <g clip-path="url(#pbd1feaa1ec)">
     <use xlink:href="#m2b13e49ffb" x="351.262125" y="256.68" style="fill: #0000ff; stroke: #0000ff; stroke-width: 4"/>
    </g>
   </g>
   <g id="patch_7">
    <path d="M 239.662125 144.414 
L 243.847125 156.888 
L 241.057125 156.888 
L 241.057125 201.24 
L 238.267125 201.24 
L 238.267125 156.888 
L 235.477125 156.888 
z
" clip-path="url(#pbd1feaa1ec)" style="fill: #0000ff; stroke: #0000ff; stroke-linejoin: miter"/>
   </g>
   <g id="PathCollection_16">
    <g clip-path="url(#pbd1feaa1ec)">
     <use xlink:href="#m2b13e49ffb" x="295.462125" y="201.24" style="fill: #0000ff; stroke: #0000ff; stroke-width: 4"/>
    </g>
   </g>
   <g id="PathCollection_17">
    <g clip-path="url(#pbd1feaa1ec)">
     <use xlink:href="#m2b13e49ffb" x="351.262125" y="145.8" style="fill: #0000ff; stroke: #0000ff; stroke-width: 4"/>
    </g>
   </g>
   <g id="patch_8">
    <path d="M 295.462125 144.414 
L 299.647125 156.888 
L 296.857125 156.888 
L 296.857125 201.24 
L 294.067125 201.24 
L 294.067125 156.888 
L 291.277125 156.888 
z
" clip-path="url(#pbd1feaa1ec)" style="fill: #0000ff; stroke: #0000ff; stroke-linejoin: miter"/>
   </g>
   <g id="patch_9">
    <path d="M 348.979851 198.97245 
L 337.142883 193.09215 
L 339.115711 191.13205 
L 294.475711 146.78005 
L 296.448539 144.81995 
L 341.088539 189.17195 
L 343.061367 187.21185 
z
" clip-path="url(#pbd1feaa1ec)" style="fill: #0000ff; stroke: #0000ff; stroke-linejoin: miter"/>
   </g>
   <g id="patch_10">
    <path d="M 351.262125 144.414 
L 355.447125 156.888 
L 352.657125 156.888 
L 352.657125 201.24 
L 349.867125 201.24 
L 349.867125 156.888 
L 347.077125 156.888 
z
" clip-path="url(#pbd1feaa1ec)" style="fill: #0000ff; stroke: #0000ff; stroke-linejoin: miter"/>
   </g>
   <g id="patch_11">
    <path d="M 462.862125 17.7336 
L 471.232125 34.3656 
L 462.890025 34.3656 
L 462.890025 34.92 
L 462.834225 34.92 
L 462.834225 34.3656 
L 454.492125 34.3656 
L 462.862125 17.7336 
z
" clip-path="url(#pbd1feaa1ec)" style="fill: none; stroke: #696969; stroke-linejoin: miter"/>
   </g>
   <g id="matplotlib.axis_1">
    <g id="xtick_1">
     <g id="line2d_1">
      <path d="M 44.362125 450.72 
L 44.362125 7.2 
" clip-path="url(#pbd1feaa1ec)" style="fill: none; stroke: #b0b0b0; stroke-linecap: square"/>
     </g>
     <g id="line2d_2">
      <defs>
       <path id="m2deb66703b" d="M 0 0 
L 0 3.5 
" style="stroke: #000000; stroke-width: 0.8"/>
      </defs>
      <g>
       <use xlink:href="#m2deb66703b" x="44.362125" y="450.72" style="stroke: #000000; stroke-width: 0.8"/>
      </g>
     </g>
    </g>
    <g id="xtick_2">
     <g id="line2d_3">
      <path d="M 155.962125 450.72 
L 155.962125 7.2 
" clip-path="url(#pbd1feaa1ec)" style="fill: none; stroke: #b0b0b0; stroke-linecap: square"/>
     </g>
     <g id="line2d_4">
      <g>
       <use xlink:href="#m2deb66703b" x="155.962125" y="450.72" style="stroke: #000000; stroke-width: 0.8"/>
      </g>
     </g>
    </g>
    <g id="xtick_3">
     <g id="line2d_5">
      <path d="M 267.562125 450.72 
L 267.562125 7.2 
" clip-path="url(#pbd1feaa1ec)" style="fill: none; stroke: #b0b0b0; stroke-linecap: square"/>
     </g>
     <g id="line2d_6">
      <g>
       <use xlink:href="#m2deb66703b" x="267.562125" y="450.72" style="stroke: #000000; stroke-width: 0.8"/>
      </g>
     </g>
    </g>
    <g id="xtick_4">
     <g id="line2d_7">
      <path d="M 379.162125 450.72 
L 379.162125 7.2 
" clip-path="url(#pbd1feaa1ec)" style="fill: none; stroke: #b0b0b0; stroke-linecap: square"/>
     </g>
     <g id="line2d_8">
      <g>
       <use xlink:href="#m2deb66703b" x="379.162125" y="450.72" style="stroke: #000000; stroke-width: 0.8"/>
      </g>
     </g>
    </g>
    <g id="xtick_5">
     <g id="line2d_9">
      <path d="M 490.762125 450.72 
L 490.762125 7.2 
" clip-path="url(#pbd1feaa1ec)" style="fill: none; stroke: #b0b0b0; stroke-linecap: square"/>
     </g>
     <g id="line2d_10">
      <g>
       <use xlink:href="#m2deb66703b" x="490.762125" y="450.72" style="stroke: #000000; stroke-width: 0.8"/>
      </g>
     </g>
    </g>
    <g id="text_1">
     <!-- x -->
     <g transform="translate(258.562125 480.1527) scale(0.36 -0.36)">
      <defs>
       <path id="TimesNewRomanPSMT-78" d="M 84 2863 
L 1431 2863 
L 1431 2747 
Q 1303 2747 1251 2703 
Q 1200 2659 1200 2588 
Q 1200 2513 1309 2356 
Q 1344 2306 1413 2200 
L 1616 1875 
L 1850 2200 
Q 2075 2509 2075 2591 
Q 2075 2656 2022 2701 
Q 1969 2747 1850 2747 
L 1850 2863 
L 2819 2863 
L 2819 2747 
Q 2666 2738 2553 2663 
Q 2400 2556 2134 2200 
L 1744 1678 
L 2456 653 
Q 2719 275 2831 198 
Q 2944 122 3122 113 
L 3122 0 
L 1772 0 
L 1772 113 
Q 1913 113 1991 175 
Q 2050 219 2050 291 
Q 2050 363 1850 653 
L 1431 1266 
L 972 653 
Q 759 369 759 316 
Q 759 241 829 180 
Q 900 119 1041 113 
L 1041 0 
L 106 0 
L 106 113 
Q 219 128 303 191 
Q 422 281 703 653 
L 1303 1450 
L 759 2238 
Q 528 2575 401 2661 
Q 275 2747 84 2747 
L 84 2863 
z
" transform="scale(0.015625)"/>
      </defs>
      <use xlink:href="#TimesNewRomanPSMT-78"/>
     </g>
    </g>
   </g>
   <g id="matplotlib.axis_2">
    <g id="ytick_1">
     <g id="line2d_11">
      <path d="M 44.362125 450.72 
L 490.762125 450.72 
" clip-path="url(#pbd1feaa1ec)" style="fill: none; stroke: #b0b0b0; stroke-linecap: square"/>
     </g>
     <g id="line2d_12">
      <defs>
       <path id="mf96f558b75" d="M 0 0 
L -3.5 0 
" style="stroke: #000000; stroke-width: 0.8"/>
      </defs>
      <g>
       <use xlink:href="#mf96f558b75" x="44.362125" y="450.72" style="stroke: #000000; stroke-width: 0.8"/>
      </g>
     </g>
    </g>
    <g id="ytick_2">
     <g id="line2d_13">
      <path d="M 44.362125 395.28 
L 490.762125 395.28 
" clip-path="url(#pbd1feaa1ec)" style="fill: none; stroke: #b0b0b0; stroke-linecap: square"/>
     </g>
     <g id="line2d_14">
      <g>
       <use xlink:href="#mf96f558b75" x="44.362125" y="395.28" style="stroke: #000000; stroke-width: 0.8"/>
      </g>
     </g>
    </g>
    <g id="ytick_3">
     <g id="line2d_15">
      <path d="M 44.362125 339.84 
L 490.762125 339.84 
" clip-path="url(#pbd1feaa1ec)" style="fill: none; stroke: #b0b0b0; stroke-linecap: square"/>
     </g>
     <g id="line2d_16">
      <g>
       <use xlink:href="#mf96f558b75" x="44.362125" y="339.84" style="stroke: #000000; stroke-width: 0.8"/>
      </g>
     </g>
    </g>
    <g id="ytick_4">
     <g id="line2d_17">
      <path d="M 44.362125 284.4 
L 490.762125 284.4 
" clip-path="url(#pbd1feaa1ec)" style="fill: none; stroke: #b0b0b0; stroke-linecap: square"/>
     </g>
     <g id="line2d_18">
      <g>
       <use xlink:href="#mf96f558b75" x="44.362125" y="284.4" style="stroke: #000000; stroke-width: 0.8"/>
      </g>
     </g>
    </g>
    <g id="ytick_5">
     <g id="line2d_19">
      <path d="M 44.362125 228.96 
L 490.762125 228.96 
" clip-path="url(#pbd1feaa1ec)" style="fill: none; stroke: #b0b0b0; stroke-linecap: square"/>
     </g>
     <g id="line2d_20">
      <g>
       <use xlink:href="#mf96f558b75" x="44.362125" y="228.96" style="stroke: #000000; stroke-width: 0.8"/>
      </g>
     </g>
    </g>
    <g id="ytick_6">
     <g id="line2d_21">
      <path d="M 44.362125 173.52 
L 490.762125 173.52 
" clip-path="url(#pbd1feaa1ec)" style="fill: none; stroke: #b0b0b0; stroke-linecap: square"/>
     </g>
     <g id="line2d_22">
      <g>
       <use xlink:href="#mf96f558b75" x="44.362125" y="173.52" style="stroke: #000000; stroke-width: 0.8"/>
      </g>
     </g>
    </g>
    <g id="ytick_7">
     <g id="line2d_23">
      <path d="M 44.362125 118.08 
L 490.762125 118.08 
" clip-path="url(#pbd1feaa1ec)" style="fill: none; stroke: #b0b0b0; stroke-linecap: square"/>
     </g>
     <g id="line2d_24">
      <g>
       <use xlink:href="#mf96f558b75" x="44.362125" y="118.08" style="stroke: #000000; stroke-width: 0.8"/>
      </g>
     </g>
    </g>
    <g id="ytick_8">
     <g id="line2d_25">
      <path d="M 44.362125 62.64 
L 490.762125 62.64 
" clip-path="url(#pbd1feaa1ec)" style="fill: none; stroke: #b0b0b0; stroke-linecap: square"/>
     </g>
     <g id="line2d_26">
      <g>
       <use xlink:href="#mf96f558b75" x="44.362125" y="62.64" style="stroke: #000000; stroke-width: 0.8"/>
      </g>
     </g>
    </g>
    <g id="ytick_9">
     <g id="line2d_27">
      <path d="M 44.362125 7.2 
L 490.762125 7.2 
" clip-path="url(#pbd1feaa1ec)" style="fill: none; stroke: #b0b0b0; stroke-linecap: square"/>
     </g>
     <g id="line2d_28">
      <g>
       <use xlink:href="#mf96f558b75" x="44.362125" y="7.2" style="stroke: #000000; stroke-width: 0.8"/>
      </g>
     </g>
    </g>
    <g id="text_2">
     <!-- y -->
     <g transform="translate(32.13 237.96) rotate(-90) scale(0.36 -0.36)">
      <defs>
       <path id="TimesNewRomanPSMT-79" d="M 38 2863 
L 1372 2863 
L 1372 2747 
L 1306 2747 
Q 1166 2747 1095 2686 
Q 1025 2625 1025 2534 
Q 1025 2413 1128 2197 
L 1825 753 
L 2466 2334 
Q 2519 2463 2519 2588 
Q 2519 2644 2497 2672 
Q 2472 2706 2419 2726 
Q 2366 2747 2231 2747 
L 2231 2863 
L 3163 2863 
L 3163 2747 
Q 3047 2734 2984 2696 
Q 2922 2659 2847 2556 
Q 2819 2513 2741 2316 
L 1575 -541 
Q 1406 -956 1132 -1168 
Q 859 -1381 606 -1381 
Q 422 -1381 303 -1275 
Q 184 -1169 184 -1031 
Q 184 -900 270 -820 
Q 356 -741 506 -741 
Q 609 -741 788 -809 
Q 913 -856 944 -856 
Q 1038 -856 1148 -759 
Q 1259 -663 1372 -384 
L 1575 113 
L 547 2272 
Q 500 2369 397 2513 
Q 319 2622 269 2659 
Q 197 2709 38 2747 
L 38 2863 
z
" transform="scale(0.015625)"/>
      </defs>
      <use xlink:href="#TimesNewRomanPSMT-79"/>
     </g>
    </g>
   </g>
   <g id="line2d_29">
    <path d="M 72.262125 423 
L 72.262125 367.56 
L 128.062125 423 
L 128.062125 367.56 
" clip-path="url(#pbd1feaa1ec)" style="fill: none; stroke-dasharray: 25.6,6.4,4,6.4; stroke-dashoffset: 0; stroke: #d3d3d3; stroke-width: 4"/>
   </g>
   <g id="line2d_30">
    <path d="M 72.262125 312.12 
L 72.262125 256.68 
L 128.062125 312.12 
L 128.062125 256.68 
L 183.862125 423 
L 183.862125 367.56 
L 239.662125 423 
L 239.662125 367.56 
" clip-path="url(#pbd1feaa1ec)" style="fill: none; stroke-dasharray: 25.6,6.4,4,6.4; stroke-dashoffset: 0; stroke: #d3d3d3; stroke-width: 4"/>
   </g>
   <g id="line2d_31">
    <path d="M 183.862125 312.12 
L 183.862125 256.68 
L 239.662125 312.12 
L 239.662125 256.68 
L 72.262125 201.24 
L 72.262125 145.8 
L 128.062125 201.24 
L 128.062125 145.8 
L 72.262125 90.36 
L 72.262125 34.92 
L 128.062125 90.36 
L 128.062125 34.92 
L 183.862125 201.24 
L 183.862125 145.8 
L 239.662125 201.24 
" clip-path="url(#pbd1feaa1ec)" style="fill: none; stroke-dasharray: 25.6,6.4,4,6.4; stroke-dashoffset: 0; stroke: #d3d3d3; stroke-width: 4"/>
   </g>
   <g id="line2d_32">
    <path d="M 239.662125 145.8 
L 183.862125 90.36 
L 183.862125 34.92 
L 239.662125 90.36 
L 239.662125 34.92 
L 295.462125 423 
L 295.462125 367.56 
L 351.262125 423 
L 351.262125 367.56 
L 295.462125 312.12 
L 295.462125 256.68 
L 351.262125 312.12 
L 351.262125 256.68 
L 407.062125 423 
L 407.062125 367.56 
L 462.862125 423 
L 462.862125 367.56 
L 407.062125 312.12 
L 407.062125 256.68 
L 462.862125 312.12 
L 462.862125 256.68 
L 295.462125 201.24 
" clip-path="url(#pbd1feaa1ec)" style="fill: none; stroke-dasharray: 25.6,6.4,4,6.4; stroke-dashoffset: 0; stroke: #d3d3d3; stroke-width: 4"/>
   </g>
   <g id="line2d_33">
    <path d="M 351.262125 145.8 
L 295.462125 90.36 
L 295.462125 34.92 
L 351.262125 90.36 
L 351.262125 34.92 
L 407.062125 201.24 
L 407.062125 145.8 
L 462.862125 201.24 
L 462.862125 145.8 
L 407.062125 90.36 
L 407.062125 34.92 
L 462.862125 90.36 
L 462.862125 34.92 
" clip-path="url(#pbd1feaa1ec)" style="fill: none; stroke-dasharray: 25.6,6.4,4,6.4; stroke-dashoffset: 0; stroke: #d3d3d3; stroke-width: 4"/>
   </g>
   <g id="line2d_34">
    <path d="M 100.162125 450.72 
L 100.162125 7.2 
" clip-path="url(#pbd1feaa1ec)" style="fill: none; stroke: #d3d3d3; stroke-linecap: square"/>
   </g>
   <g id="line2d_35">
    <path d="M 211.762125 450.72 
L 211.762125 7.2 
" clip-path="url(#pbd1feaa1ec)" style="fill: none; stroke: #d3d3d3; stroke-linecap: square"/>
   </g>
   <g id="line2d_36">
    <path d="M 323.362125 450.72 
L 323.362125 7.2 
" clip-path="url(#pbd1feaa1ec)" style="fill: none; stroke: #d3d3d3; stroke-linecap: square"/>
   </g>
   <g id="line2d_37">
    <path d="M 434.962125 450.72 
L 434.962125 7.2 
" clip-path="url(#pbd1feaa1ec)" style="fill: none; stroke: #d3d3d3; stroke-linecap: square"/>
   </g>
   <g id="patch_12">
    <path d="M 44.362125 450.72 
L 44.362125 7.2 
" style="fill: none; stroke: #000000; stroke-width: 0.8; stroke-linejoin: miter; stroke-linecap: square"/>
   </g>
   <g id="patch_13">
    <path d="M 490.762125 450.72 
L 490.762125 7.2 
" style="fill: none; stroke: #000000; stroke-width: 0.8; stroke-linejoin: miter; stroke-linecap: square"/>
   </g>
   <g id="patch_14">
    <path d="M 44.362125 450.72 
L 490.762125 450.72 
" style="fill: none; stroke: #000000; stroke-width: 0.8; stroke-linejoin: miter; stroke-linecap: square"/>
   </g>
   <g id="patch_15">
    <path d="M 44.362125 7.2 
L 490.762125 7.2 
" style="fill: none; stroke: #000000; stroke-width: 0.8; stroke-linejoin: miter; stroke-linecap: square"/>
   </g>
   <g id="text_3">
    <!-- $\mathcal{R}_x^3$ -->
    <g style="fill: #008000" transform="translate(250.822125 292.716) scale(0.26 -0.26)">
     <defs>
      <path id="Cmsy10-52" d="M 738 -91 
Q 738 -78 744 -56 
Q 966 475 1128 959 
Q 1291 1444 1428 1991 
Q 1678 2959 1766 3994 
Q 1425 3994 1094 3872 
Q 922 3803 833 3695 
Q 744 3588 684 3397 
Q 622 3291 472 3197 
Q 322 3103 206 3103 
L 166 3103 
Q 122 3131 122 3169 
Q 234 3556 581 3828 
Q 928 4100 1387 4236 
Q 1847 4372 2259 4372 
L 2931 4372 
Q 3378 4372 3739 4331 
Q 4100 4291 4392 4112 
Q 4684 3934 4684 3572 
Q 4684 3281 4548 3014 
Q 4413 2747 4189 2533 
Q 3966 2319 3697 2158 
Q 3428 1997 3156 1900 
Q 3253 1784 3383 1501 
Q 3513 1219 3659 911 
Q 3806 603 3951 420 
Q 4097 238 4256 238 
Q 4444 238 4551 308 
Q 4659 378 4775 520 
Q 4891 663 4997 745 
Q 5103 828 5281 844 
L 5319 844 
Q 5363 822 5363 794 
Q 5363 784 5356 768 
Q 5350 753 5344 738 
Q 5188 503 4936 297 
Q 4684 91 4393 -25 
Q 4103 -141 3828 -141 
L 3788 -141 
Q 3541 -141 3372 98 
Q 3203 338 3003 811 
Q 2803 1284 2651 1515 
Q 2500 1747 2278 1747 
Q 2266 1753 2250 1765 
Q 2234 1778 2234 1797 
Q 2234 1900 2420 2006 
Q 2606 2113 2719 2125 
Q 3072 2125 3395 2262 
Q 3719 2400 3917 2667 
Q 4116 2934 4116 3291 
Q 4116 3613 3833 3767 
Q 3550 3922 3203 3958 
Q 2856 3994 2450 3994 
L 2309 3994 
Q 2209 3041 1954 2070 
Q 1700 1100 1300 153 
Q 1238 41 1092 -43 
Q 947 -128 813 -141 
L 781 -141 
Q 769 -134 753 -121 
Q 738 -109 738 -91 
z
" transform="scale(0.015625)"/>
      <path id="Cmr10-33" d="M 609 494 
Q 759 275 1012 169 
Q 1266 63 1556 63 
Q 1928 63 2084 380 
Q 2241 697 2241 1100 
Q 2241 1281 2208 1462 
Q 2175 1644 2097 1800 
Q 2019 1956 1883 2050 
Q 1747 2144 1550 2144 
L 1125 2144 
Q 1069 2144 1069 2203 
L 1069 2259 
Q 1069 2309 1125 2309 
L 1478 2338 
Q 1703 2338 1851 2506 
Q 2000 2675 2069 2917 
Q 2138 3159 2138 3378 
Q 2138 3684 1994 3881 
Q 1850 4078 1556 4078 
Q 1313 4078 1091 3986 
Q 869 3894 738 3706 
Q 750 3709 759 3711 
Q 769 3713 781 3713 
Q 925 3713 1022 3613 
Q 1119 3513 1119 3372 
Q 1119 3234 1022 3134 
Q 925 3034 781 3034 
Q 641 3034 541 3134 
Q 441 3234 441 3372 
Q 441 3647 606 3850 
Q 772 4053 1033 4158 
Q 1294 4263 1556 4263 
Q 1750 4263 1965 4205 
Q 2181 4147 2356 4039 
Q 2531 3931 2642 3762 
Q 2753 3594 2753 3378 
Q 2753 3109 2633 2881 
Q 2513 2653 2303 2487 
Q 2094 2322 1844 2241 
Q 2122 2188 2372 2031 
Q 2622 1875 2773 1631 
Q 2925 1388 2925 1106 
Q 2925 753 2731 467 
Q 2538 181 2222 20 
Q 1906 -141 1556 -141 
Q 1256 -141 954 -26 
Q 653 88 461 316 
Q 269 544 269 863 
Q 269 1022 375 1128 
Q 481 1234 641 1234 
Q 744 1234 830 1186 
Q 916 1138 964 1050 
Q 1013 963 1013 863 
Q 1013 706 903 600 
Q 794 494 641 494 
L 609 494 
z
" transform="scale(0.015625)"/>
      <path id="Cmmi10-78" d="M 500 184 
Q 613 97 819 97 
Q 1019 97 1172 289 
Q 1325 481 1381 709 
L 1672 1844 
Q 1741 2153 1741 2266 
Q 1741 2425 1652 2544 
Q 1563 2663 1403 2663 
Q 1200 2663 1022 2536 
Q 844 2409 722 2214 
Q 600 2019 550 1819 
Q 538 1778 500 1778 
L 422 1778 
Q 372 1778 372 1838 
L 372 1856 
Q 434 2094 584 2320 
Q 734 2547 951 2687 
Q 1169 2828 1416 2828 
Q 1650 2828 1839 2703 
Q 2028 2578 2106 2363 
Q 2216 2559 2386 2693 
Q 2556 2828 2759 2828 
Q 2897 2828 3040 2779 
Q 3184 2731 3275 2631 
Q 3366 2531 3366 2381 
Q 3366 2219 3261 2101 
Q 3156 1984 2994 1984 
Q 2891 1984 2822 2050 
Q 2753 2116 2753 2216 
Q 2753 2350 2845 2451 
Q 2938 2553 3066 2572 
Q 2950 2663 2747 2663 
Q 2541 2663 2389 2472 
Q 2238 2281 2175 2047 
L 1894 916 
Q 1825 659 1825 494 
Q 1825 331 1917 214 
Q 2009 97 2163 97 
Q 2463 97 2698 361 
Q 2934 625 3009 941 
Q 3022 978 3059 978 
L 3138 978 
Q 3163 978 3178 961 
Q 3194 944 3194 922 
Q 3194 916 3188 903 
Q 3097 522 2806 225 
Q 2516 -72 2150 -72 
Q 1916 -72 1727 54 
Q 1538 181 1459 397 
Q 1359 209 1182 68 
Q 1006 -72 806 -72 
Q 669 -72 523 -23 
Q 378 25 287 125 
Q 197 225 197 378 
Q 197 528 301 651 
Q 406 775 563 775 
Q 669 775 741 711 
Q 813 647 813 544 
Q 813 409 723 309 
Q 634 209 500 184 
z
" transform="scale(0.015625)"/>
     </defs>
     <use xlink:href="#Cmsy10-52" transform="translate(0 0.109375)"/>
     <use xlink:href="#Cmr10-33" transform="translate(89.180937 38.373438) scale(0.7)"/>
     <use xlink:href="#Cmmi10-78" transform="translate(89.180937 -25.4) scale(0.7)"/>
    </g>
   </g>
   <g id="text_4">
    <!-- $\mathcal{R}_x^1$ -->
    <g style="fill: #ff0000" transform="translate(306.622125 292.716) scale(0.26 -0.26)">
     <defs>
      <path id="Cmr10-31" d="M 594 0 
L 594 225 
Q 1394 225 1394 428 
L 1394 3788 
Q 1063 3628 556 3628 
L 556 3853 
Q 1341 3853 1741 4263 
L 1831 4263 
Q 1853 4263 1873 4245 
Q 1894 4228 1894 4206 
L 1894 428 
Q 1894 225 2694 225 
L 2694 0 
L 594 0 
z
" transform="scale(0.015625)"/>
     </defs>
     <use xlink:href="#Cmsy10-52" transform="translate(0 0.109375)"/>
     <use xlink:href="#Cmr10-31" transform="translate(89.180937 38.373438) scale(0.7)"/>
     <use xlink:href="#Cmmi10-78" transform="translate(89.180937 -25.4) scale(0.7)"/>
    </g>
   </g>
   <g id="text_5">
    <!-- $\mathcal{R}_y^3$ -->
    <g style="fill: #008000" transform="translate(195.022125 245.592) scale(0.26 -0.26)">
     <defs>
      <path id="Cmmi10-79" d="M 538 -916 
Q 672 -1147 1006 -1147 
Q 1309 -1147 1531 -934 
Q 1753 -722 1889 -420 
Q 2025 -119 2100 197 
Q 1816 -72 1484 -72 
Q 1231 -72 1053 15 
Q 875 103 776 276 
Q 678 450 678 697 
Q 678 906 734 1126 
Q 791 1347 892 1617 
Q 994 1888 1069 2088 
Q 1153 2322 1153 2472 
Q 1153 2663 1013 2663 
Q 759 2663 595 2402 
Q 431 2141 353 1819 
Q 341 1778 300 1778 
L 225 1778 
Q 172 1778 172 1838 
L 172 1856 
Q 275 2238 487 2533 
Q 700 2828 1025 2828 
Q 1253 2828 1411 2678 
Q 1569 2528 1569 2297 
Q 1569 2178 1516 2047 
Q 1488 1969 1388 1706 
Q 1288 1444 1234 1272 
Q 1181 1100 1147 934 
Q 1113 769 1113 603 
Q 1113 391 1203 244 
Q 1294 97 1491 97 
Q 1888 97 2203 581 
L 2688 2553 
Q 2709 2638 2787 2698 
Q 2866 2759 2956 2759 
Q 3034 2759 3092 2709 
Q 3150 2659 3150 2578 
Q 3150 2541 3144 2528 
L 2509 -19 
Q 2425 -347 2200 -647 
Q 1975 -947 1658 -1130 
Q 1341 -1313 997 -1313 
Q 831 -1313 668 -1248 
Q 506 -1184 406 -1056 
Q 306 -928 306 -756 
Q 306 -581 409 -453 
Q 513 -325 684 -325 
Q 788 -325 858 -389 
Q 928 -453 928 -556 
Q 928 -703 818 -812 
Q 709 -922 563 -922 
Q 556 -919 550 -917 
Q 544 -916 538 -916 
z
" transform="scale(0.015625)"/>
     </defs>
     <use xlink:href="#Cmsy10-52" transform="translate(0 0.109375)"/>
     <use xlink:href="#Cmr10-33" transform="translate(89.180937 38.373438) scale(0.7)"/>
     <use xlink:href="#Cmmi10-79" transform="translate(89.180937 -25.4) scale(0.7)"/>
    </g>
   </g>
   <g id="text_6">
    <!-- $\mathcal{R}_y^1$ -->
    <g style="fill: #ff0000" transform="translate(195.022125 190.152) scale(0.26 -0.26)">
     <use xlink:href="#Cmsy10-52" transform="translate(0 0.109375)"/>
     <use xlink:href="#Cmr10-31" transform="translate(89.180937 38.373438) scale(0.7)"/>
     <use xlink:href="#Cmmi10-79" transform="translate(89.180937 -25.4) scale(0.7)"/>
    </g>
   </g>
   <g id="text_7">
    <!-- $\mathcal{N}_{q_2}(\mathcal{D}_y^0)=3$ -->
    <g transform="translate(362.422125 228.96) scale(0.26 -0.26)">
     <defs>
      <path id="Cmsy10-4e" d="M -184 13 
Q -184 131 -103 322 
Q -22 513 72 513 
Q 84 513 91 506 
Q 294 294 594 294 
Q 763 294 892 598 
Q 1022 903 1147 1306 
Q 1213 1509 1308 1837 
Q 1403 2166 1453 2369 
Q 1497 2538 1558 2827 
Q 1619 3116 1658 3331 
Q 1697 3547 1728 3772 
Q 1759 3997 1784 4244 
Q 1784 4278 1831 4325 
Q 1900 4397 1997 4453 
Q 2088 4494 2181 4513 
L 2234 4513 
Q 2272 4494 2278 4469 
Q 2438 3909 2675 3200 
Q 2891 2544 3044 2125 
Q 3197 1706 3405 1242 
Q 3613 778 3859 384 
Q 4194 1819 4525 2988 
L 4609 3284 
Q 4747 3769 4836 4039 
Q 4925 4309 5063 4525 
Q 5175 4700 5356 4800 
Q 5538 4900 5753 4942 
Q 5969 4984 6203 4984 
Q 6259 4984 6259 4878 
Q 6259 4803 6226 4686 
Q 6194 4569 6137 4478 
Q 6081 4388 6009 4372 
Q 5756 4372 5557 4331 
Q 5359 4291 5197 4184 
Q 5116 4125 5102 4094 
Q 5088 4063 5038 3909 
Q 4956 3684 4872 3366 
L 4788 3078 
Q 4625 2491 4498 2006 
Q 4372 1522 4256 1045 
Q 4141 569 4031 84 
Q 4034 84 4029 92 
Q 4025 100 4025 103 
Q 4025 47 3951 -15 
Q 3878 -78 3783 -120 
Q 3688 -163 3628 -172 
L 3584 -172 
Q 3478 -119 3222 368 
Q 2966 856 2834 1172 
Q 2359 2347 1966 3628 
Q 1916 3319 1759 2648 
Q 1603 1978 1387 1297 
Q 1172 616 914 148 
Q 656 -319 397 -319 
Q 231 -319 23 -225 
Q -184 -131 -184 13 
z
" transform="scale(0.015625)"/>
      <path id="Cmmi10-71" d="M 941 -1159 
Q 963 -1019 1025 -1019 
Q 1256 -1019 1389 -981 
Q 1522 -944 1563 -800 
L 1838 288 
Q 1472 -72 1106 -72 
Q 703 -72 473 233 
Q 244 538 244 953 
Q 244 1363 455 1803 
Q 666 2244 1027 2536 
Q 1388 2828 1806 2828 
Q 2000 2828 2156 2712 
Q 2313 2597 2394 2406 
Q 2431 2481 2601 2654 
Q 2772 2828 2841 2828 
Q 2913 2828 2913 2747 
L 2016 -825 
Q 2000 -919 1997 -934 
Q 1997 -1019 2419 -1019 
Q 2450 -1019 2467 -1044 
Q 2484 -1069 2484 -1100 
Q 2463 -1184 2448 -1212 
Q 2434 -1241 2375 -1241 
L 1006 -1241 
Q 941 -1241 941 -1159 
z
M 1119 97 
Q 1344 97 1558 267 
Q 1772 438 1931 672 
L 2291 2113 
Q 2253 2338 2126 2500 
Q 2000 2663 1791 2663 
Q 1575 2663 1389 2486 
Q 1203 2309 1075 2069 
Q 950 1813 836 1366 
Q 722 919 722 672 
Q 722 450 817 273 
Q 913 97 1119 97 
z
" transform="scale(0.015625)"/>
      <path id="Cmr10-32" d="M 319 0 
L 319 172 
Q 319 188 331 206 
L 1325 1306 
Q 1550 1550 1690 1715 
Q 1831 1881 1968 2097 
Q 2106 2313 2186 2536 
Q 2266 2759 2266 3009 
Q 2266 3272 2169 3511 
Q 2072 3750 1880 3894 
Q 1688 4038 1416 4038 
Q 1138 4038 916 3870 
Q 694 3703 603 3438 
Q 628 3444 672 3444 
Q 816 3444 917 3347 
Q 1019 3250 1019 3097 
Q 1019 2950 917 2848 
Q 816 2747 672 2747 
Q 522 2747 420 2851 
Q 319 2956 319 3097 
Q 319 3338 409 3548 
Q 500 3759 670 3923 
Q 841 4088 1055 4175 
Q 1269 4263 1509 4263 
Q 1875 4263 2190 4108 
Q 2506 3953 2690 3670 
Q 2875 3388 2875 3009 
Q 2875 2731 2753 2481 
Q 2631 2231 2440 2026 
Q 2250 1822 1953 1562 
Q 1656 1303 1563 1216 
L 838 519 
L 1453 519 
Q 1906 519 2211 526 
Q 2516 534 2534 550 
Q 2609 631 2688 1141 
L 2875 1141 
L 2694 0 
L 319 0 
z
" transform="scale(0.015625)"/>
      <path id="Cmr10-28" d="M 1984 -1588 
Q 1628 -1306 1370 -942 
Q 1113 -578 948 -165 
Q 784 247 703 697 
Q 622 1147 622 1600 
Q 622 2059 703 2509 
Q 784 2959 951 3375 
Q 1119 3791 1378 4153 
Q 1638 4516 1984 4788 
Q 1984 4800 2016 4800 
L 2075 4800 
Q 2094 4800 2109 4783 
Q 2125 4766 2125 4744 
Q 2125 4716 2113 4703 
Q 1800 4397 1592 4047 
Q 1384 3697 1257 3301 
Q 1131 2906 1075 2482 
Q 1019 2059 1019 1600 
Q 1019 -434 2106 -1491 
Q 2125 -1509 2125 -1544 
Q 2125 -1559 2108 -1579 
Q 2091 -1600 2075 -1600 
L 2016 -1600 
Q 1984 -1600 1984 -1588 
z
" transform="scale(0.015625)"/>
      <path id="Cmsy10-44" d="M 488 50 
Q 488 141 634 233 
Q 781 325 897 366 
Q 1263 1300 1447 2059 
Q 1694 3056 1766 3994 
Q 1425 3994 1094 3872 
Q 922 3803 833 3695 
Q 744 3588 684 3397 
Q 622 3291 472 3197 
Q 322 3103 206 3103 
L 166 3103 
Q 122 3131 122 3169 
Q 234 3556 581 3828 
Q 928 4100 1387 4236 
Q 1847 4372 2259 4372 
L 2888 4372 
Q 3269 4372 3622 4297 
Q 3975 4222 4267 4048 
Q 4559 3875 4731 3587 
Q 4903 3300 4903 2894 
Q 4903 2266 4572 1728 
Q 4241 1191 3691 802 
Q 3141 413 2506 206 
Q 1872 0 1281 0 
L 531 0 
Q 519 6 503 18 
Q 488 31 488 50 
z
M 1369 378 
L 1691 378 
Q 2194 378 2662 528 
Q 3131 678 3509 968 
Q 3888 1259 4109 1681 
Q 4331 2103 4331 2613 
Q 4331 3119 4053 3430 
Q 3775 3741 3337 3867 
Q 2900 3994 2406 3994 
L 2309 3994 
Q 2238 3200 2016 2316 
Q 1775 1353 1369 378 
z
" transform="scale(0.015625)"/>
      <path id="Cmr10-30" d="M 1600 -141 
Q 816 -141 533 504 
Q 250 1150 250 2041 
Q 250 2597 351 3087 
Q 453 3578 754 3920 
Q 1056 4263 1600 4263 
Q 2022 4263 2290 4056 
Q 2559 3850 2700 3523 
Q 2841 3197 2892 2823 
Q 2944 2450 2944 2041 
Q 2944 1491 2842 1011 
Q 2741 531 2444 195 
Q 2147 -141 1600 -141 
z
M 1600 25 
Q 1956 25 2131 390 
Q 2306 756 2347 1200 
Q 2388 1644 2388 2144 
Q 2388 2625 2347 3031 
Q 2306 3438 2132 3767 
Q 1959 4097 1600 4097 
Q 1238 4097 1063 3765 
Q 888 3434 847 3029 
Q 806 2625 806 2144 
Q 806 1788 823 1472 
Q 841 1156 916 820 
Q 991 484 1158 254 
Q 1325 25 1600 25 
z
" transform="scale(0.015625)"/>
      <path id="Cmr10-29" d="M 416 -1600 
Q 359 -1600 359 -1544 
Q 359 -1516 372 -1503 
Q 1466 -434 1466 1600 
Q 1466 3634 384 4691 
Q 359 4706 359 4744 
Q 359 4766 376 4783 
Q 394 4800 416 4800 
L 475 4800 
Q 494 4800 506 4788 
Q 966 4425 1272 3906 
Q 1578 3388 1720 2800 
Q 1863 2213 1863 1600 
Q 1863 1147 1786 708 
Q 1709 269 1542 -157 
Q 1375 -584 1119 -945 
Q 863 -1306 506 -1588 
Q 494 -1600 475 -1600 
L 416 -1600 
z
" transform="scale(0.015625)"/>
      <path id="Cmr10-3d" d="M 481 850 
Q 428 850 393 890 
Q 359 931 359 978 
Q 359 1031 393 1068 
Q 428 1106 481 1106 
L 4500 1106 
Q 4547 1106 4581 1068 
Q 4616 1031 4616 978 
Q 4616 931 4581 890 
Q 4547 850 4500 850 
L 481 850 
z
M 481 2094 
Q 428 2094 393 2131 
Q 359 2169 359 2222 
Q 359 2269 393 2309 
Q 428 2350 481 2350 
L 4500 2350 
Q 4547 2350 4581 2309 
Q 4616 2269 4616 2222 
Q 4616 2169 4581 2131 
Q 4547 2094 4500 2094 
L 481 2094 
z
" transform="scale(0.015625)"/>
     </defs>
     <use xlink:href="#Cmsy10-4e" transform="translate(0 0.109375)"/>
     <use xlink:href="#Cmmi10-71" transform="translate(86.446562 -16.896875) scale(0.7)"/>
     <use xlink:href="#Cmr10-32" transform="translate(117.652617 -28.80125) scale(0.49)"/>
     <use xlink:href="#Cmr10-28" transform="translate(152.994102 0.109375)"/>
     <use xlink:href="#Cmsy10-44" transform="translate(191.812461 0.109375)"/>
     <use xlink:href="#Cmr10-30" transform="translate(273.376211 38.373438) scale(0.7)"/>
     <use xlink:href="#Cmmi10-79" transform="translate(273.376211 -25.4) scale(0.7)"/>
     <use xlink:href="#Cmr10-29" transform="translate(314.753555 0.109375)"/>
     <use xlink:href="#Cmr10-3d" transform="translate(371.130508 0.109375)"/>
     <use xlink:href="#Cmr10-33" transform="translate(466.374648 0.109375)"/>
    </g>
   </g>
   <g id="text_8">
    <!-- $\mathcal{N}_{q_2}(\mathcal{D}_y^1)=1$ -->
    <g transform="translate(362.422125 267.768) scale(0.26 -0.26)">
     <use xlink:href="#Cmsy10-4e" transform="translate(0 0.109375)"/>
     <use xlink:href="#Cmmi10-71" transform="translate(86.446562 -16.896875) scale(0.7)"/>
     <use xlink:href="#Cmr10-32" transform="translate(117.652617 -28.80125) scale(0.49)"/>
     <use xlink:href="#Cmr10-28" transform="translate(152.994102 0.109375)"/>
     <use xlink:href="#Cmsy10-44" transform="translate(191.812461 0.109375)"/>
     <use xlink:href="#Cmr10-31" transform="translate(273.376211 38.373438) scale(0.7)"/>
     <use xlink:href="#Cmmi10-79" transform="translate(273.376211 -25.4) scale(0.7)"/>
     <use xlink:href="#Cmr10-29" transform="translate(314.753555 0.109375)"/>
     <use xlink:href="#Cmr10-3d" transform="translate(371.130508 0.109375)"/>
     <use xlink:href="#Cmr10-31" transform="translate(466.374648 0.109375)"/>
    </g>
   </g>
   <g id="text_9">
    <!-- $\mathcal{N}_{q_2}(\mathcal{D}_x^0)=3$ -->
    <g transform="translate(217.342125 123.624) scale(0.26 -0.26)">
     <use xlink:href="#Cmsy10-4e" transform="translate(0 0.109375)"/>
     <use xlink:href="#Cmmi10-71" transform="translate(86.446562 -16.896875) scale(0.7)"/>
     <use xlink:href="#Cmr10-32" transform="translate(117.652617 -28.80125) scale(0.49)"/>
     <use xlink:href="#Cmr10-28" transform="translate(152.994102 0.109375)"/>
     <use xlink:href="#Cmsy10-44" transform="translate(191.812461 0.109375)"/>
     <use xlink:href="#Cmr10-30" transform="translate(273.376211 38.373438) scale(0.7)"/>
     <use xlink:href="#Cmmi10-78" transform="translate(273.376211 -25.4) scale(0.7)"/>
     <use xlink:href="#Cmr10-29" transform="translate(319.709609 0.109375)"/>
     <use xlink:href="#Cmr10-3d" transform="translate(376.086562 0.109375)"/>
     <use xlink:href="#Cmr10-33" transform="translate(471.330703 0.109375)"/>
    </g>
   </g>
   <g id="text_10">
    <!-- $\mathcal{N}_{q_2}(\mathcal{D}_x^1)=1$ -->
    <g transform="translate(217.342125 84.816) scale(0.26 -0.26)">
     <use xlink:href="#Cmsy10-4e" transform="translate(0 0.109375)"/>
     <use xlink:href="#Cmmi10-71" transform="translate(86.446562 -16.896875) scale(0.7)"/>
     <use xlink:href="#Cmr10-32" transform="translate(117.652617 -28.80125) scale(0.49)"/>
     <use xlink:href="#Cmr10-28" transform="translate(152.994102 0.109375)"/>
     <use xlink:href="#Cmsy10-44" transform="translate(191.812461 0.109375)"/>
     <use xlink:href="#Cmr10-31" transform="translate(273.376211 38.373438) scale(0.7)"/>
     <use xlink:href="#Cmmi10-78" transform="translate(273.376211 -25.4) scale(0.7)"/>
     <use xlink:href="#Cmr10-29" transform="translate(319.709609 0.109375)"/>
     <use xlink:href="#Cmr10-3d" transform="translate(376.086562 0.109375)"/>
     <use xlink:href="#Cmr10-31" transform="translate(471.330703 0.109375)"/>
    </g>
   </g>
   <g id="text_11">
    <!-- $\mathcal{R}_x^1$ -->
    <g style="fill: #ff0000" transform="translate(83.422125 411.912) scale(0.26 -0.26)">
     <use xlink:href="#Cmsy10-52" transform="translate(0 0.109375)"/>
     <use xlink:href="#Cmr10-31" transform="translate(89.180937 38.373438) scale(0.7)"/>
     <use xlink:href="#Cmmi10-78" transform="translate(89.180937 -25.4) scale(0.7)"/>
    </g>
   </g>
   <g id="text_12">
    <!-- $\mathcal{R}_x^2$ -->
    <g style="fill: #0000ff" transform="translate(139.222125 411.912) scale(0.26 -0.26)">
     <use xlink:href="#Cmsy10-52" transform="translate(0 0.109375)"/>
     <use xlink:href="#Cmr10-32" transform="translate(89.180937 38.373438) scale(0.7)"/>
     <use xlink:href="#Cmmi10-78" transform="translate(89.180937 -25.4) scale(0.7)"/>
    </g>
   </g>
   <g id="text_13">
    <!-- $\mathcal{R}_x^1$ -->
    <g style="fill: #ff0000" transform="translate(195.022125 411.912) scale(0.26 -0.26)">
     <use xlink:href="#Cmsy10-52" transform="translate(0 0.109375)"/>
     <use xlink:href="#Cmr10-31" transform="translate(89.180937 38.373438) scale(0.7)"/>
     <use xlink:href="#Cmmi10-78" transform="translate(89.180937 -25.4) scale(0.7)"/>
    </g>
   </g>
   <g id="text_14">
    <!-- $\mathcal{R}_x^3$ -->
    <g style="fill: #008000" transform="translate(250.822125 411.912) scale(0.26 -0.26)">
     <use xlink:href="#Cmsy10-52" transform="translate(0 0.109375)"/>
     <use xlink:href="#Cmr10-33" transform="translate(89.180937 38.373438) scale(0.7)"/>
     <use xlink:href="#Cmmi10-78" transform="translate(89.180937 -25.4) scale(0.7)"/>
    </g>
   </g>
   <g id="text_15">
    <!-- $\mathcal{R}_y^2$ -->
    <g style="fill: #0000ff" transform="translate(16.462125 356.472) scale(0.26 -0.26)">
     <use xlink:href="#Cmsy10-52" transform="translate(0 0.109375)"/>
     <use xlink:href="#Cmr10-32" transform="translate(89.180937 38.373438) scale(0.7)"/>
     <use xlink:href="#Cmmi10-79" transform="translate(89.180937 -25.4) scale(0.7)"/>
    </g>
   </g>
   <g id="text_16">
    <!-- $\mathcal{N}_{q_1}(\mathcal{D}_y^0)=2$ -->
    <g transform="translate(312.202125 389.736) scale(0.26 -0.26)">
     <use xlink:href="#Cmsy10-4e" transform="translate(0 0.109375)"/>
     <use xlink:href="#Cmmi10-71" transform="translate(86.446562 -16.896875) scale(0.7)"/>
     <use xlink:href="#Cmr10-31" transform="translate(117.652617 -28.80125) scale(0.49)"/>
     <use xlink:href="#Cmr10-28" transform="translate(152.994102 0.109375)"/>
     <use xlink:href="#Cmsy10-44" transform="translate(191.812461 0.109375)"/>
     <use xlink:href="#Cmr10-30" transform="translate(273.376211 38.373438) scale(0.7)"/>
     <use xlink:href="#Cmmi10-79" transform="translate(273.376211 -25.4) scale(0.7)"/>
     <use xlink:href="#Cmr10-29" transform="translate(314.753555 0.109375)"/>
     <use xlink:href="#Cmr10-3d" transform="translate(371.130508 0.109375)"/>
     <use xlink:href="#Cmr10-32" transform="translate(466.374648 0.109375)"/>
    </g>
   </g>
   <g id="text_17">
    <!-- $\mathcal{N}_{q_1}(\mathcal{D}_x^0)=5$ -->
    <g transform="translate(49.942125 289.944) scale(0.26 -0.26)">
     <defs>
      <path id="Cmr10-35" d="M 556 728 
Q 622 541 758 387 
Q 894 234 1080 148 
Q 1266 63 1466 63 
Q 1928 63 2103 422 
Q 2278 781 2278 1294 
Q 2278 1516 2270 1667 
Q 2263 1819 2228 1959 
Q 2169 2184 2020 2353 
Q 1872 2522 1656 2522 
Q 1441 2522 1286 2456 
Q 1131 2391 1034 2303 
Q 938 2216 863 2119 
Q 788 2022 769 2016 
L 697 2016 
Q 681 2016 657 2036 
Q 634 2056 634 2075 
L 634 4213 
Q 634 4228 654 4245 
Q 675 4263 697 4263 
L 716 4263 
Q 1147 4056 1631 4056 
Q 2106 4056 2547 4263 
L 2566 4263 
Q 2588 4263 2606 4247 
Q 2625 4231 2625 4213 
L 2625 4153 
Q 2625 4122 2613 4122 
Q 2394 3831 2064 3668 
Q 1734 3506 1381 3506 
Q 1125 3506 856 3578 
L 856 2369 
Q 1069 2541 1236 2614 
Q 1403 2688 1663 2688 
Q 2016 2688 2295 2484 
Q 2575 2281 2725 1954 
Q 2875 1628 2875 1288 
Q 2875 903 2686 575 
Q 2497 247 2172 53 
Q 1847 -141 1466 -141 
Q 1150 -141 886 21 
Q 622 184 470 459 
Q 319 734 319 1044 
Q 319 1188 412 1278 
Q 506 1369 647 1369 
Q 788 1369 883 1276 
Q 978 1184 978 1044 
Q 978 906 883 811 
Q 788 716 647 716 
Q 625 716 597 720 
Q 569 725 556 728 
z
" transform="scale(0.015625)"/>
     </defs>
     <use xlink:href="#Cmsy10-4e" transform="translate(0 0.109375)"/>
     <use xlink:href="#Cmmi10-71" transform="translate(86.446562 -16.896875) scale(0.7)"/>
     <use xlink:href="#Cmr10-31" transform="translate(117.652617 -28.80125) scale(0.49)"/>
     <use xlink:href="#Cmr10-28" transform="translate(152.994102 0.109375)"/>
     <use xlink:href="#Cmsy10-44" transform="translate(191.812461 0.109375)"/>
     <use xlink:href="#Cmr10-30" transform="translate(273.376211 38.373438) scale(0.7)"/>
     <use xlink:href="#Cmmi10-78" transform="translate(273.376211 -25.4) scale(0.7)"/>
     <use xlink:href="#Cmr10-29" transform="translate(319.709609 0.109375)"/>
     <use xlink:href="#Cmr10-3d" transform="translate(376.086562 0.109375)"/>
     <use xlink:href="#Cmr10-35" transform="translate(471.330703 0.109375)"/>
    </g>
   </g>
   <g id="text_18">
    <!-- $\mathcal{N}_{q_1}(\mathcal{D}_x^1)=2$ -->
    <g transform="translate(49.942125 251.136) scale(0.26 -0.26)">
     <use xlink:href="#Cmsy10-4e" transform="translate(0 0.109375)"/>
     <use xlink:href="#Cmmi10-71" transform="translate(86.446562 -16.896875) scale(0.7)"/>
     <use xlink:href="#Cmr10-31" transform="translate(117.652617 -28.80125) scale(0.49)"/>
     <use xlink:href="#Cmr10-28" transform="translate(152.994102 0.109375)"/>
     <use xlink:href="#Cmsy10-44" transform="translate(191.812461 0.109375)"/>
     <use xlink:href="#Cmr10-31" transform="translate(273.376211 38.373438) scale(0.7)"/>
     <use xlink:href="#Cmmi10-78" transform="translate(273.376211 -25.4) scale(0.7)"/>
     <use xlink:href="#Cmr10-29" transform="translate(319.709609 0.109375)"/>
     <use xlink:href="#Cmr10-3d" transform="translate(376.086562 0.109375)"/>
     <use xlink:href="#Cmr10-32" transform="translate(471.330703 0.109375)"/>
    </g>
   </g>
   <g id="text_19">
    <!-- $\mathcal{N}_{q_1}(\mathcal{D}_x^2)=1$ -->
    <g transform="translate(49.942125 212.328) scale(0.26 -0.26)">
     <use xlink:href="#Cmsy10-4e" transform="translate(0 0.109375)"/>
     <use xlink:href="#Cmmi10-71" transform="translate(86.446562 -16.896875) scale(0.7)"/>
     <use xlink:href="#Cmr10-31" transform="translate(117.652617 -28.80125) scale(0.49)"/>
     <use xlink:href="#Cmr10-28" transform="translate(152.994102 0.109375)"/>
     <use xlink:href="#Cmsy10-44" transform="translate(191.812461 0.109375)"/>
     <use xlink:href="#Cmr10-32" transform="translate(273.376211 38.373438) scale(0.7)"/>
     <use xlink:href="#Cmmi10-78" transform="translate(273.376211 -25.4) scale(0.7)"/>
     <use xlink:href="#Cmr10-29" transform="translate(319.709609 0.109375)"/>
     <use xlink:href="#Cmr10-3d" transform="translate(376.086562 0.109375)"/>
     <use xlink:href="#Cmr10-31" transform="translate(471.330703 0.109375)"/>
    </g>
   </g>
   <g id="text_20">
    <!-- $q_1$ -->
    <g style="fill: #ff0000" transform="translate(312.202125 339.84) scale(0.4 -0.4)">
     <use xlink:href="#Cmmi10-71" transform="translate(0 0.8125)"/>
     <use xlink:href="#Cmr10-31" transform="translate(44.580078 -16.19375) scale(0.7)"/>
    </g>
   </g>
   <g id="text_21">
    <!-- $q_2$ -->
    <g style="fill: #ff0000" transform="translate(379.162125 173.52) scale(0.4 -0.4)">
     <use xlink:href="#Cmmi10-71" transform="translate(0 0.8125)"/>
     <use xlink:href="#Cmr10-32" transform="translate(44.580078 -16.19375) scale(0.7)"/>
    </g>
   </g>
  </g>
 </g>
 <defs>
  <clipPath id="pbd1feaa1ec">
   <rect x="44.362125" y="7.2" width="446.4" height="443.52"/>
  </clipPath>
 </defs>
</svg>
